<?xml version="1.0" encoding="UTF-8" standalone="no"?>
<!-- Created with Inkscape (http://www.inkscape.org/) -->

<svg
   xmlns:dc="http://purl.org/dc/elements/1.1/"
   xmlns:cc="http://creativecommons.org/ns#"
   xmlns:rdf="http://www.w3.org/1999/02/22-rdf-syntax-ns#"
   xmlns:svg="http://www.w3.org/2000/svg"
   xmlns="http://www.w3.org/2000/svg"
   xmlns:sodipodi="http://sodipodi.sourceforge.net/DTD/sodipodi-0.dtd"
   xmlns:inkscape="http://www.inkscape.org/namespaces/inkscape"
   width="744.09448819"
   height="1052.3622047"
   id="svg12648"
   version="1.1"
   inkscape:version="0.48.4 r9939"
   sodipodi:docname="flowers.svg">
  <defs
     id="defs12650" />
  <sodipodi:namedview
     id="base"
     pagecolor="#ffffff"
     bordercolor="#666666"
     borderopacity="1.0"
     inkscape:pageopacity="0.0"
     inkscape:pageshadow="2"
     inkscape:zoom="1.979899"
     inkscape:cx="173.12308"
     inkscape:cy="885.29945"
     inkscape:document-units="px"
     inkscape:current-layer="layer1"
     showgrid="false"
     inkscape:window-width="1918"
     inkscape:window-height="1030"
     inkscape:window-x="0"
     inkscape:window-y="0"
     inkscape:window-maximized="1" />
  <metadata
     id="metadata12653">
    <rdf:RDF>
      <cc:Work
         rdf:about="">
        <dc:format>image/svg+xml</dc:format>
        <dc:type
           rdf:resource="http://purl.org/dc/dcmitype/StillImage" />
        <dc:title></dc:title>
      </cc:Work>
    </rdf:RDF>
  </metadata>
  <g
     inkscape:label="Layer 1"
     inkscape:groupmode="layer"
     id="layer1">
    <g
       id="g13278">
      <path
         inkscape:connector-curvature="0"
         id="path13191"
         d="m 139.55202,175.84587 c -14.46119,19.10406 -14.46119,19.10406 -14.46119,19.10406"
         style="fill:none;stroke:#000000;stroke-width:0.82451779px;stroke-linecap:butt;stroke-linejoin:miter;stroke-opacity:1" />
      <path
         inkscape:connector-curvature="0"
         id="path13191-0"
         d="M 137.76389,172.99114 C 113.6647,184.59036 113.6647,184.59036 113.6647,184.59036"
         style="fill:none;stroke:#000000;stroke-width:0.82937407px;stroke-linecap:butt;stroke-linejoin:miter;stroke-opacity:1" />
      <path
         inkscape:transform-center-y="11.64468"
         inkscape:connector-curvature="0"
         id="path13191-1"
         d="m 138.37016,169.98802 c -31.74032,-9.53738 -31.74032,-9.53738 -31.74032,-9.53738"
         style="fill:none;stroke:#000000;stroke-width:1.10423815px;stroke-linecap:butt;stroke-linejoin:miter;stroke-opacity:1" />
      <path
         inkscape:transform-center-x="7.0602681"
         inkscape:transform-center-y="2.7154469"
         inkscape:connector-curvature="0"
         id="path13191-1-9"
         d="m 144.61467,167.06979 c 0.72156,-43.03995 0.72156,-43.03995 0.72156,-43.03995"
         style="fill:none;stroke:#000000;stroke-width:0.9980104px;stroke-linecap:butt;stroke-linejoin:miter;stroke-opacity:1" />
      <path
         inkscape:transform-center-x="6.7078653"
         inkscape:transform-center-y="11.099493"
         inkscape:connector-curvature="0"
         id="path13191-1-3"
         d="M 141.41592,168.08134 C 114.17148,134.48648 114.17148,134.48648 114.17148,134.48648"
         style="fill:none;stroke:#000000;stroke-width:1.31949306px;stroke-linecap:butt;stroke-linejoin:miter;stroke-opacity:1" />
      <path
         inkscape:transform-center-y="8.3474196"
         inkscape:connector-curvature="0"
         id="path13191-1-8"
         d="m 153.69441,171.13773 c 32.61118,-6.83682 32.61118,-6.83682 32.61118,-6.83682"
         style="fill:none;stroke:#000000;stroke-width:0.94766039px;stroke-linecap:butt;stroke-linejoin:miter;stroke-opacity:1" />
      <path
         inkscape:transform-center-x="6.7626201"
         inkscape:transform-center-y="-9.9215388"
         inkscape:connector-curvature="0"
         id="path13191-1-93"
         d="m 149.87533,167.03225 c 22.08325,-35.57077 22.08325,-35.57077 22.08325,-35.57077"
         style="fill:none;stroke:#000000;stroke-width:1.23142421px;stroke-linecap:butt;stroke-linejoin:miter;stroke-opacity:1" />
      <path
         inkscape:transform-center-y="15.285933"
         inkscape:connector-curvature="0"
         id="path13191-1-7"
         d="M 172.36131,187.5506 C 153.35296,175.0309 153.35296,175.0309 153.35296,175.0309"
         style="fill:none;stroke:#000000;stroke-width:0.97906506px;stroke-linecap:butt;stroke-linejoin:miter;stroke-opacity:1" />
      <path
         d="m 153.21428,172.71933 a 7.5,5 0 1 1 -15,0 7.5,5 0 1 1 15,0 z"
         sodipodi:ry="5"
         sodipodi:rx="7.5"
         sodipodi:cy="172.71933"
         sodipodi:cx="145.71428"
         id="path13187"
         style="fill:#2ca70f;fill-opacity:1;stroke:none;stroke-width:2.20000004999999987;stroke-linecap:round;stroke-miterlimit:4;stroke-opacity:1;stroke-dasharray:none"
         sodipodi:type="arc" />
      <path
         inkscape:transform-center-x="9.5820444"
         inkscape:transform-center-y="2.2335849"
         inkscape:connector-curvature="0"
         id="path13191-1-2"
         d="m 157.53583,194.83662 c -7.39256,-16.96034 -7.39256,-16.96034 -7.39256,-16.96034"
         style="fill:none;stroke:#000000;stroke-width:0.76851469px;stroke-linecap:butt;stroke-linejoin:miter;stroke-opacity:1" />
      <path
         inkscape:connector-curvature="0"
         id="path13185"
         d="m 145.35714,177.36218 -7.14286,106.42857"
         style="fill:none;stroke:#2ca70f;stroke-width:2.20000005;stroke-linecap:butt;stroke-linejoin:miter;stroke-miterlimit:4;stroke-opacity:1;stroke-dasharray:none" />
      <path
         transform="translate(1.4285714,-1.0714286)"
         d="m 182.14285,159.86218 a 37.5,36.07143 0 1 1 -75,0 37.5,36.07143 0 1 1 75,0 z"
         sodipodi:ry="36.07143"
         sodipodi:rx="37.5"
         sodipodi:cy="159.86218"
         sodipodi:cx="144.64285"
         id="path12675"
         style="fill:#f3f7fa;fill-opacity:0.78365386;stroke:none"
         sodipodi:type="arc" />
    </g>
    <g
       id="g13450"
       transform="matrix(0.57586211,0,0,0.4176403,146.91786,106.08597)">
      <path
         sodipodi:nodetypes="ccc"
         inkscape:connector-curvature="0"
         id="path13292"
         d="m 381.97015,215.02279 c -26.78915,1.40846 -30.04287,-12.41696 -31.97126,-27.10026 16.91508,3.20199 32.80509,7.35919 31.97126,27.10026 z"
         style="fill:#1412fc;fill-opacity:1;stroke:#000000;stroke-width:0.74955273px;stroke-linecap:butt;stroke-linejoin:miter;stroke-opacity:1" />
      <path
         sodipodi:nodetypes="ccc"
         inkscape:connector-curvature="0"
         id="path13292-8"
         d="m 381.80616,212.303 c 20.74869,13.34525 31.0986,4.35983 40.86292,-5.8831 -15.38978,-5.32607 -30.48983,-9.45849 -40.86292,5.8831 z"
         style="fill:#1412fc;fill-opacity:1;stroke:#000000;stroke-width:0.69736326px;stroke-linecap:butt;stroke-linejoin:miter;stroke-opacity:1" />
      <path
         sodipodi:nodetypes="ccc"
         inkscape:connector-curvature="0"
         id="path13292-7"
         d="m 383.51328,203.73203 c -33.68366,2.67912 -36.06906,17.49423 -36.69196,32.99277 20.76978,-5.92712 40.14083,-12.68482 36.69196,-32.99277 z"
         style="fill:#1412fc;fill-opacity:1;stroke:#000000;stroke-width:0.85916501px;stroke-linecap:butt;stroke-linejoin:miter;stroke-opacity:1" />
      <path
         sodipodi:nodetypes="ccc"
         inkscape:connector-curvature="0"
         id="path13292-8-1"
         d="m 376.84578,207.94149 c 30.74166,12.64305 26.7271,25.42257 20.7553,38.20977 -17.14586,-11.26974 -32.61641,-22.77974 -20.7553,-38.20977 z"
         style="fill:#1412fc;fill-opacity:1;stroke:#000000;stroke-width:0.81530237px;stroke-linecap:butt;stroke-linejoin:miter;stroke-opacity:1" />
      <path
         sodipodi:nodetypes="ccc"
         inkscape:connector-curvature="0"
         id="path13292-8-4"
         d="m 381.53517,213.35481 c 25.65379,-8.64605 18.33418,-19.67056 9.15775,-30.82902 -13.14783,8.37485 -24.64201,17.06118 -9.15775,30.82902 z"
         style="fill:#1412fc;fill-opacity:1;stroke:#000000;stroke-width:0.72014171px;stroke-linecap:butt;stroke-linejoin:miter;stroke-opacity:1" />
      <path
         transform="matrix(0.65853811,0.17608072,-0.17635659,0.53870562,207.7447,45.619417)"
         d="m 335.35716,202.89789 c 0,9.96085 -8.63451,18.03571 -19.28572,18.03571 -10.6512,0 -19.28571,-8.07486 -19.28571,-18.03571 0,-9.96085 8.63451,-18.03572 19.28571,-18.03572 10.65121,0 19.28572,8.07487 19.28572,18.03572 z"
         sodipodi:ry="18.035715"
         sodipodi:rx="19.285715"
         sodipodi:cy="202.89789"
         sodipodi:cx="316.07144"
         id="path13351"
         style="fill:#ff0f39;fill-opacity:1;stroke:#000000;stroke-opacity:1"
         sodipodi:type="arc" />
    </g>
    <path
       sodipodi:type="arc"
       style="fill:#ffe60f;fill-opacity:1;stroke:#000000;stroke-width:0.5;stroke-linecap:round;stroke-miterlimit:4;stroke-opacity:1;stroke-dasharray:none"
       id="path13817-2"
       sodipodi:cx="347.14285"
       sodipodi:cy="249.14789"
       sodipodi:rx="8.5714283"
       sodipodi:ry="7.1428571"
       d="m 355.71428,249.14789 a 8.5714283,7.1428571 0 1 1 -17.14286,0 8.5714283,7.1428571 0 1 1 17.14286,0 z"
       transform="matrix(1.3933911,-0.37998008,0.29961285,0.9543277,-190.13538,142.07459)" />
    <path
       sodipodi:type="arc"
       style="fill:#ffe60f;fill-opacity:1;stroke:#000000;stroke-width:0.5;stroke-linecap:round;stroke-miterlimit:4;stroke-opacity:1;stroke-dasharray:none"
       id="path13817-7-7"
       sodipodi:cx="347.14285"
       sodipodi:cy="249.14789"
       sodipodi:rx="8.5714283"
       sodipodi:ry="7.1428571"
       d="m 355.71428,249.14789 a 8.5714283,7.1428571 0 1 1 -17.14286,0 8.5714283,7.1428571 0 1 1 17.14286,0 z"
       transform="matrix(-1.0487074,-0.93570235,-0.73779771,0.7182553,913.54256,401.87588)" />
    <path
       sodipodi:type="arc"
       style="fill:#ffe60f;fill-opacity:1;stroke:#000000;stroke-width:0.5;stroke-linecap:round;stroke-miterlimit:4;stroke-opacity:1;stroke-dasharray:none"
       id="path13817-7"
       sodipodi:cx="347.14285"
       sodipodi:cy="249.14789"
       sodipodi:rx="8.5714283"
       sodipodi:ry="7.1428571"
       d="m 355.71428,249.14789 a 8.5714283,7.1428571 0 1 1 -17.14286,0 8.5714283,7.1428571 0 1 1 17.14286,0 z"
       transform="matrix(1.2775352,-0.64278284,0.50683183,0.8749785,-219.05222,261.73218)" />
    <path
       sodipodi:type="arc"
       style="fill:#ffe60f;fill-opacity:1;stroke:#000000;stroke-width:0.5;stroke-linecap:round;stroke-miterlimit:4;stroke-opacity:1;stroke-dasharray:none"
       id="path13817"
       sodipodi:cx="347.14285"
       sodipodi:cy="249.14789"
       sodipodi:rx="8.5714283"
       sodipodi:ry="7.1428571"
       d="m 355.71428,249.14789 a 8.5714283,7.1428571 0 1 1 -17.14286,0 8.5714283,7.1428571 0 1 1 17.14286,0 z"
       transform="matrix(1.3461844,0.50667438,-0.39951083,0.92199606,-19.213707,-160.82921)" />
    <path
       sodipodi:type="arc"
       style="fill:#ffe60f;fill-opacity:1;stroke:#000000;stroke-width:0.5;stroke-linecap:round;stroke-miterlimit:4;stroke-opacity:1;stroke-dasharray:none"
       id="path13817-1"
       sodipodi:cx="347.14285"
       sodipodi:cy="249.14789"
       sodipodi:rx="8.5714283"
       sodipodi:ry="7.1428571"
       d="m 355.71428,249.14789 a 8.5714283,7.1428571 0 1 1 -17.14286,0 8.5714283,7.1428571 0 1 1 17.14286,0 z"
       transform="matrix(0.17376678,-1.0757201,1.0637076,0.09490035,33.586335,590.39446)" />
    <path
       sodipodi:type="arc"
       style="fill:#146000;fill-opacity:1;stroke:#000000;stroke-width:0.5;stroke-linecap:round;stroke-miterlimit:4;stroke-opacity:1;stroke-dasharray:none"
       id="path13873"
       sodipodi:cx="432.32144"
       sodipodi:cy="278.96933"
       sodipodi:rx="20.535715"
       sodipodi:ry="46.964287"
       d="m 452.85716,278.96933 a 20.535715,46.964287 0 1 1 -0.005,-1.03703"
       sodipodi:start="0"
       sodipodi:end="6.2611022"
       sodipodi:open="true"
       transform="matrix(0.42679688,0,0,0.12784344,172.62887,212.43807)" />
    <g
       id="g13994">
      <path
         sodipodi:nodetypes="ccc"
         inkscape:connector-curvature="0"
         id="path13292-82"
         d="m 270.20751,136.92201 c -15.42686,0.58823 -18.11573,-6.84527 -16.01193,-11.1919 11.75163,-6.66996 17.10868,2.53618 16.01193,11.1919 z"
         style="fill:#fc2612;fill-opacity:1;stroke:#000000;stroke-width:0.36758911999999999px;stroke-linecap:butt;stroke-linejoin:miter;stroke-opacity:1" />
      <path
         sodipodi:nodetypes="ccc"
         inkscape:connector-curvature="0"
         id="path13292-8-12"
         d="m 270.11307,135.78611 c 11.94838,5.57352 16.86618,6.79917 19.95998,-3.88559 -7.34716,-8.30324 -13.98651,-2.52167 -19.95998,3.88559 z"
         style="fill:#fc2612;fill-opacity:1;stroke:#000000;stroke-width:0.34199481999999998px;stroke-linecap:butt;stroke-linejoin:miter;stroke-opacity:1" />
      <path
         sodipodi:nodetypes="ccc"
         inkscape:connector-curvature="0"
         id="path13292-7-1"
         d="m 272.35883,130.94384 c -19.39715,1.11891 -19.88693,5.03345 -21.12951,13.77911 16.54583,3.74397 23.11558,-5.29769 21.12951,-13.77911 z"
         style="fill:#fc2612;fill-opacity:1;stroke:#000000;stroke-width:0.42134421999999999px;stroke-linecap:butt;stroke-linejoin:miter;stroke-opacity:1" />
      <path
         sodipodi:nodetypes="ccc"
         inkscape:connector-curvature="0"
         id="path13292-8-1-9"
         d="m 270.81065,132.59429 c 20.3052,5.50424 13.80047,10.7324 9.09843,17.30953 -14.57214,1.46094 -16.93283,-10.59197 -9.09843,-17.30953 z"
         style="fill:#fc2612;fill-opacity:1;stroke:#000000;stroke-width:0.43720090000000000px;stroke-linecap:butt;stroke-linejoin:miter;stroke-opacity:1" />
      <path
         sodipodi:nodetypes="ccc"
         inkscape:connector-curvature="0"
         id="path13292-8-4-3"
         d="m 269.95702,136.22539 c 14.77304,-3.61094 8.05796,-14.28665 2.41646,-14.30402 -8.07642,1.22483 -11.33326,8.55402 -2.41646,14.30402 z"
         style="fill:#fc2612;fill-opacity:1;stroke:#000000;stroke-width:0.35316563000000001px;stroke-linecap:butt;stroke-linejoin:miter;stroke-opacity:1" />
      <path
         transform="matrix(0.37922715,0.0735384,-0.10155708,0.22498518,169.87767,66.17233)"
         d="m 335.35716,202.89789 a 19.285715,26.793554 0 1 1 -38.57143,0 19.285715,26.793554 0 1 1 38.57143,0 z"
         sodipodi:ry="26.793554"
         sodipodi:rx="19.285715"
         sodipodi:cy="202.89789"
         sodipodi:cx="316.07144"
         id="path13351-2"
         style="fill:#200006;fill-opacity:1;stroke:#000000;stroke-opacity:1"
         sodipodi:type="arc" />
    </g>
    <g
       transform="matrix(1.3689649,0,0,1.2861676,228.00382,-1115.1878)"
       id="g14158-07-1">
      <path
         transform="matrix(0.32990906,0,0,0.30637191,-14.214565,958.74444)"
         d="m 102.85714,244.50504 c 0,5.52284 -7.195422,10 -16.071427,10 -8.876005,0 -16.071428,-4.47716 -16.071428,-10 0,-5.52285 7.195423,-10 16.071428,-10 8.876005,0 16.071427,4.47715 16.071427,10 z"
         sodipodi:ry="10"
         sodipodi:rx="16.071428"
         sodipodi:cy="244.50504"
         sodipodi:cx="86.785713"
         id="path3786-25-7"
         style="fill:#ffffff;fill-opacity:1;stroke:#000000;stroke-width:1.97532272;stroke-miterlimit:4;stroke-opacity:1;stroke-dasharray:none"
         sodipodi:type="arc" />
      <path
         transform="matrix(0.44052411,0,0,0.33896455,-20.890971,950.46108)"
         d="m 70.714286,254.1479 c 0,6.90356 -4.637051,12.5 -10.357143,12.5 -5.720091,0 -10.357142,-5.59644 -10.357142,-12.5 0,-6.90356 4.637051,-12.5 10.357142,-12.5 5.720092,0 10.357143,5.59644 10.357143,12.5 z"
         sodipodi:ry="12.5"
         sodipodi:rx="10.357142"
         sodipodi:cy="254.1479"
         sodipodi:cx="60.357143"
         id="path3788-7-1"
         style="fill:#ffffff;fill-opacity:1;stroke:#000000;stroke-width:1.6251657;stroke-miterlimit:4;stroke-opacity:1;stroke-dasharray:none"
         sodipodi:type="arc" />
      <path
         transform="matrix(0.37301537,0,0,0.3453494,-18.327942,947.90376)"
         d="m 78.571425,280.93362 c 0,7.4953 -5.916237,13.57143 -13.214285,13.57143 -7.298049,0 -13.214286,-6.07613 -13.214286,-13.57143 0,-7.49529 5.916237,-13.57142 13.214286,-13.57142 7.298048,0 13.214285,6.07613 13.214285,13.57142 z"
         sodipodi:ry="13.571428"
         sodipodi:rx="13.214286"
         sodipodi:cy="280.93362"
         sodipodi:cx="65.35714"
         id="path3790-5-1"
         style="fill:#ffffff;fill-opacity:1;stroke:#000000;stroke-width:1.74971342;stroke-miterlimit:4;stroke-opacity:1;stroke-dasharray:none"
         sodipodi:type="arc" />
      <path
         transform="matrix(0.4469567,0,0,0.34071466,-25.497602,947.13623)"
         d="m 102.14285,290.21933 c 0,8.28427 -5.27664,15 -11.78571,15 -6.509071,0 -11.785715,-6.71573 -11.785715,-15 0,-8.28427 5.276644,-15 11.785715,-15 6.50907,0 11.78571,6.71573 11.78571,15 z"
         sodipodi:ry="15"
         sodipodi:rx="11.785714"
         sodipodi:cy="290.21933"
         sodipodi:cx="90.35714"
         id="path3792-6-0"
         style="fill:#ffffff;fill-opacity:1;stroke:#000000;stroke-width:1.60927963;stroke-miterlimit:4;stroke-opacity:1;stroke-dasharray:none"
         sodipodi:type="arc" />
      <path
         transform="matrix(0.45522301,0,0,0.25252168,-33.39985,969.48409)"
         d="m 128.57143,276.64789 c 0,9.07325 -5.43654,16.42857 -12.14286,16.42857 -6.70631,0 -12.14285,-7.35532 -12.14285,-16.42857 0,-9.07325 5.43654,-16.42857 12.14285,-16.42857 6.70632,0 12.14286,7.35532 12.14286,16.42857 z"
         sodipodi:ry="16.428572"
         sodipodi:rx="12.142858"
         sodipodi:cy="276.64789"
         sodipodi:cx="116.42857"
         id="path3794-0-7"
         style="fill:#ffffff;fill-opacity:1;stroke:#000000;stroke-width:1.85224402;stroke-miterlimit:4;stroke-opacity:1;stroke-dasharray:none"
         sodipodi:type="arc" />
      <path
         transform="matrix(0.32990906,0,0,0.30637191,-15.86411,958.08793)"
         d="m 106.42857,267.00504 c 0,8.48151 -8.954301,15.35714 -19.999996,15.35714 -11.045695,0 -20,-6.87563 -20,-15.35714 0,-8.48152 8.954305,-15.35715 20,-15.35715 11.045695,0 19.999996,6.87563 19.999996,15.35715 z"
         sodipodi:ry="15.357142"
         sodipodi:rx="20"
         sodipodi:cy="267.00504"
         sodipodi:cx="86.428574"
         id="path3784-97-4"
         style="fill:#ffe000;fill-opacity:1;stroke:#000000;stroke-width:1.97532272;stroke-miterlimit:4;stroke-opacity:1;stroke-dasharray:none"
         sodipodi:type="arc" />
    </g>
  </g>
</svg>
