<?xml version="1.0" encoding="UTF-8" standalone="no"?>
<!-- Created with Inkscape (http://www.inkscape.org/) -->

<svg
   xmlns:dc="http://purl.org/dc/elements/1.1/"
   xmlns:cc="http://creativecommons.org/ns#"
   xmlns:rdf="http://www.w3.org/1999/02/22-rdf-syntax-ns#"
   xmlns:svg="http://www.w3.org/2000/svg"
   xmlns="http://www.w3.org/2000/svg"
   xmlns:sodipodi="http://sodipodi.sourceforge.net/DTD/sodipodi-0.dtd"
   xmlns:inkscape="http://www.inkscape.org/namespaces/inkscape"
   width="159.68178"
   height="105.05586"
   id="svg14966"
   version="1.1"
   inkscape:version="0.48.4 r9939"
   sodipodi:docname="grass.svg">
  <defs
     id="defs14968" />
  <sodipodi:namedview
     id="base"
     pagecolor="#ffffff"
     bordercolor="#666666"
     borderopacity="1.0"
     inkscape:pageopacity="0.0"
     inkscape:pageshadow="2"
     inkscape:zoom="0.35"
     inkscape:cx="243.41232"
     inkscape:cy="21.099357"
     inkscape:document-units="px"
     inkscape:current-layer="layer1"
     showgrid="false"
     inkscape:window-width="822"
     inkscape:window-height="691"
     inkscape:window-x="0"
     inkscape:window-y="24"
     inkscape:window-maximized="0"
     fit-margin-top="0"
     fit-margin-left="0"
     fit-margin-right="0"
     fit-margin-bottom="0" />
  <metadata
     id="metadata14971">
    <rdf:RDF>
      <cc:Work
         rdf:about="">
        <dc:format>image/svg+xml</dc:format>
        <dc:type
           rdf:resource="http://purl.org/dc/dcmitype/StillImage" />
        <dc:title></dc:title>
      </cc:Work>
    </rdf:RDF>
  </metadata>
  <g
     inkscape:label="Layer 1"
     inkscape:groupmode="layer"
     id="layer1"
     transform="translate(-131.58768,-448.40568)">
    <path
       style="fill:#3ac82b;fill-opacity:1;stroke:none"
       d="m 195.41669,448.91075 c 0,0 1.16607,22.38774 1.01016,33.58757 -0.081,5.81757 -1.01015,17.42514 -1.01015,17.42514 l 5.05076,0 c 0,0 -0.75583,-15.27395 -1.48425,-22.88278 -0.90074,-9.40869 -3.56652,-28.12993 -3.56652,-28.12993 z"
       id="path14354"
       inkscape:connector-curvature="0"
       sodipodi:nodetypes="csccsc" />
    <path
       style="fill:#3ac82b;fill-opacity:1;stroke:none"
       d="m 186.45159,453.33017 c 0,0 0.78726,17.2107 0.63135,28.41053 -0.081,5.81757 -0.63134,18.05649 -0.63134,18.05649 l 5.05076,0 c 0,0 -0.25075,-8.20287 -0.97918,-15.81171 -0.90073,-9.40869 -4.07159,-30.65531 -4.07159,-30.65531 z"
       id="path14354-0"
       inkscape:connector-curvature="0"
       sodipodi:nodetypes="csccsc" />
    <path
       style="fill:#3ac82b;fill-opacity:1;stroke:none"
       d="m 215.80916,448.40568 c 0,0 -1.16607,22.38774 -1.01016,33.58757 0.081,5.81757 1.01015,17.42514 1.01015,17.42514 l -5.05076,0 c 0,0 0.75583,-15.27394 1.48426,-22.88278 0.90073,-9.40869 3.56651,-28.12993 3.56651,-28.12993 z"
       id="path14354-2"
       inkscape:connector-curvature="0"
       sodipodi:nodetypes="csccsc" />
    <path
       style="fill:#3ac82b;fill-opacity:1;stroke:none"
       d="m 208.10674,452.57255 c 0,0 -0.78726,17.2107 -0.63135,28.41053 0.081,5.81757 0.63134,18.05649 0.63134,18.05649 l -5.05076,0 c 0,0 0.25075,-8.20287 0.97918,-15.81171 0.90073,-9.40869 4.07159,-30.65531 4.07159,-30.65531 z"
       id="path14354-0-0"
       inkscape:connector-curvature="0"
       sodipodi:nodetypes="csccsc" />
    <path
       style="fill:#3ac82b;fill-opacity:1;stroke:none"
       d="m 230.1407,461.03258 c 0,0 2.11693,9.25575 2.27284,20.45558 0.081,5.81757 0.63134,18.05649 0.63134,18.05649 l -5.05076,0 c 0,0 0.25075,-8.20287 0.97918,-15.81171 0.90073,-9.40869 1.1674,-22.70036 1.1674,-22.70036 z"
       id="path14354-0-0-3"
       inkscape:connector-curvature="0"
       sodipodi:nodetypes="csccsc" />
    <path
       style="fill:#3ac82b;fill-opacity:1;stroke:none"
       d="m 220.54425,465.64139 c 0,0 2.11693,8.07223 2.27284,17.83995 0.081,5.07369 0.63134,15.74763 0.63134,15.74763 l -5.05076,0 c 0,0 0.25075,-7.15398 0.97918,-13.78988 0.90073,-8.20562 1.1674,-19.7977 1.1674,-19.7977 z"
       id="path14354-0-0-3-7"
       inkscape:connector-curvature="0"
       sodipodi:nodetypes="csccsc" />
    <path
       style="fill:#2c9921;fill-opacity:1;stroke:none"
       d="m 190.05026,506.48944 c 0,0 0.78726,17.2107 0.63135,28.41053 -0.081,5.81757 -0.63134,18.05649 -0.63134,18.05649 l 5.05076,0 c 0,0 -0.25075,-8.20287 -0.97918,-15.81171 -0.90073,-9.40869 -4.07159,-30.65531 -4.07159,-30.65531 z"
       id="path14354-0-7"
       inkscape:connector-curvature="0"
       sodipodi:nodetypes="csccsc" />
    <path
       style="fill:#2c9921;fill-opacity:1;stroke:none"
       d="m 219.40783,501.56495 c 0,0 -1.16607,22.38774 -1.01016,33.58757 0.081,5.81757 1.01015,17.42514 1.01015,17.42514 l -5.05076,0 c 0,0 0.75583,-15.27394 1.48426,-22.88278 0.90073,-9.40869 3.56651,-28.12993 3.56651,-28.12993 z"
       id="path14354-2-8"
       inkscape:connector-curvature="0"
       sodipodi:nodetypes="csccsc" />
    <path
       style="fill:#2c9921;fill-opacity:1;stroke:none"
       d="m 211.70541,505.73182 c 0,0 -0.78726,17.2107 -0.63135,28.41053 0.081,5.81757 0.63134,18.05649 0.63134,18.05649 l -5.05076,0 c 0,0 0.25075,-8.20287 0.97918,-15.81171 0.90073,-9.40869 4.07159,-30.65531 4.07159,-30.65531 z"
       id="path14354-0-0-7"
       inkscape:connector-curvature="0"
       sodipodi:nodetypes="csccsc" />
    <path
       style="fill:#2c9921;fill-opacity:1;stroke:none"
       d="m 233.73937,514.19185 c 0,0 2.11693,9.25575 2.27284,20.45558 0.081,5.81757 0.63134,18.05649 0.63134,18.05649 l -5.05076,0 c 0,0 0.25075,-8.20287 0.97918,-15.81171 0.90073,-9.40869 1.1674,-22.70036 1.1674,-22.70036 z"
       id="path14354-0-0-3-1"
       inkscape:connector-curvature="0"
       sodipodi:nodetypes="csccsc" />
    <path
       style="fill:#2c9921;fill-opacity:1;stroke:none"
       d="m 224.14292,518.80066 c 0,0 2.11693,8.07223 2.27284,17.83995 0.081,5.07369 0.63134,15.74763 0.63134,15.74763 l -5.05076,0 c 0,0 0.25075,-7.15398 0.97918,-13.78988 0.90073,-8.20562 1.1674,-19.7977 1.1674,-19.7977 z"
       id="path14354-0-0-3-7-9"
       inkscape:connector-curvature="0"
       sodipodi:nodetypes="csccsc" />
    <path
       style="fill:#4deb3b;fill-opacity:1;stroke:none"
       d="m 140.55278,485.90758 c 0,0 1.16607,22.38774 1.01016,33.58757 -0.081,5.81757 -1.01015,17.42514 -1.01015,17.42514 l 5.05076,0 c 0,0 -0.75583,-15.27395 -1.48425,-22.88278 -0.90074,-9.40869 -3.56652,-28.12993 -3.56652,-28.12993 z"
       id="path14354-8"
       inkscape:connector-curvature="0"
       sodipodi:nodetypes="csccsc" />
    <path
       style="fill:#4deb3b;fill-opacity:1;stroke:none"
       d="m 131.58768,490.327 c 0,0 0.78726,17.2107 0.63135,28.41053 -0.081,5.81757 -0.63134,18.05649 -0.63134,18.05649 l 5.05076,0 c 0,0 -0.25075,-8.20287 -0.97918,-15.81171 -0.90073,-9.40869 -4.07159,-30.65531 -4.07159,-30.65531 z"
       id="path14354-0-9"
       inkscape:connector-curvature="0"
       sodipodi:nodetypes="csccsc" />
    <path
       style="fill:#4deb3b;fill-opacity:1;stroke:none"
       d="m 160.94525,485.40251 c 0,0 -1.16607,22.38774 -1.01016,33.58757 0.081,5.81757 1.01015,17.42514 1.01015,17.42514 l -5.05076,0 c 0,0 0.75583,-15.27394 1.48426,-22.88278 0.90073,-9.40869 3.56651,-28.12993 3.56651,-28.12993 z"
       id="path14354-2-9"
       inkscape:connector-curvature="0"
       sodipodi:nodetypes="csccsc" />
    <path
       style="fill:#4deb3b;fill-opacity:1;stroke:none"
       d="m 153.24283,489.56938 c 0,0 -0.78726,17.2107 -0.63135,28.41053 0.081,5.81757 0.63134,18.05649 0.63134,18.05649 l -5.05076,0 c 0,0 0.25075,-8.20287 0.97918,-15.81171 0.90073,-9.40869 4.07159,-30.65531 4.07159,-30.65531 z"
       id="path14354-0-0-8"
       inkscape:connector-curvature="0"
       sodipodi:nodetypes="csccsc" />
    <path
       style="fill:#4deb3b;fill-opacity:1;stroke:none"
       d="m 175.27679,498.02941 c 0,0 2.11693,9.25575 2.27284,20.45558 0.081,5.81757 0.63134,18.05649 0.63134,18.05649 l -5.05076,0 c 0,0 0.25075,-8.20287 0.97918,-15.81171 0.90073,-9.40869 1.1674,-22.70036 1.1674,-22.70036 z"
       id="path14354-0-0-3-71"
       inkscape:connector-curvature="0"
       sodipodi:nodetypes="csccsc" />
    <path
       style="fill:#4deb3b;fill-opacity:1;stroke:none"
       d="m 165.68034,502.63822 c 0,0 2.11693,8.07223 2.27284,17.83995 0.081,5.07369 0.63134,15.74763 0.63134,15.74763 l -5.05076,0 c 0,0 0.25075,-7.15398 0.97918,-13.78988 0.90073,-8.20562 1.1674,-19.7977 1.1674,-19.7977 z"
       id="path14354-0-0-3-7-6"
       inkscape:connector-curvature="0"
       sodipodi:nodetypes="csccsc" />
    <path
       style="fill:#2c9921;fill-opacity:1;stroke:none"
       d="m 198.69969,502.44883 c 0,0 1.16607,22.38774 1.01016,33.58757 -0.081,5.81757 -1.01015,17.42514 -1.01015,17.42514 l 5.05076,0 c 0,0 -0.75583,-15.27395 -1.48425,-22.88278 -0.90074,-9.40869 -3.56652,-28.12993 -3.56652,-28.12993 z"
       id="path14354-5"
       inkscape:connector-curvature="0"
       sodipodi:nodetypes="csccsc" />
    <path
       style="fill:#3ac82b;fill-opacity:1;stroke:none"
       d="m 271.79494,482.05929 c 0,0 0.78726,17.2107 0.63135,28.41053 -0.081,5.81757 -0.63134,18.05649 -0.63134,18.05649 l 5.05076,0 c 0,0 -0.25075,-8.20287 -0.97918,-15.81171 -0.90073,-9.40869 -4.07159,-30.65531 -4.07159,-30.65531 z"
       id="path14354-0-5-87"
       inkscape:connector-curvature="0"
       sodipodi:nodetypes="csccsc" />
    <path
       style="fill:#3ac82b;fill-opacity:1;stroke:none"
       d="m 280.00243,493.04469 c 0,0 2.11693,8.07223 2.27284,17.83995 0.081,5.07369 0.63134,15.74763 0.63134,15.74763 l -5.05076,0 c 0,0 0.25075,-7.15398 0.97918,-13.78988 0.90073,-8.20562 1.1674,-19.7977 1.1674,-19.7977 z"
       id="path14354-0-0-3-7-3-04"
       inkscape:connector-curvature="0"
       sodipodi:nodetypes="csccsc" />
    <path
       style="fill:#3ac82b;fill-opacity:1;stroke:none"
       d="m 287.95738,483.82705 c 0,0 -1.16607,22.38774 -1.01016,33.58757 0.081,5.81757 1.01015,17.42514 1.01015,17.42514 l -5.05076,0 c 0,0 0.75583,-15.27394 1.48426,-22.88278 0.90073,-9.40869 3.56651,-28.12993 3.56651,-28.12993 z"
       id="path14354-2-0-3"
       inkscape:connector-curvature="0"
       sodipodi:nodetypes="csccsc" />
    <path
       style="fill:#2c9921;fill-opacity:1;stroke:none"
       d="m 276.84569,482.81689 c 0,0 1.16607,22.38774 1.01016,33.58757 -0.081,5.81757 -1.01015,17.42514 -1.01015,17.42514 l 5.05076,0 c 0,0 -0.75583,-15.27395 -1.48425,-22.88278 -0.90074,-9.40869 -3.56652,-28.12993 -3.56652,-28.12993 z"
       id="path14354-5-0-33"
       inkscape:connector-curvature="0"
       sodipodi:nodetypes="csccsc" />
    <path
       style="fill:#4deb3b;fill-opacity:1;stroke:none"
       d="m 274.32032,485.84735 c 0,0 1.16607,22.38774 1.01016,33.58757 -0.081,5.81757 -1.01015,17.42514 -1.01015,17.42514 l 5.05076,0 c 0,0 -0.75583,-15.27395 -1.48425,-22.88278 -0.90074,-9.40869 -3.56652,-28.12993 -3.56652,-28.12993 z"
       id="path14354-8-2-65"
       inkscape:connector-curvature="0"
       sodipodi:nodetypes="csccsc" />
    <path
       style="fill:#4deb3b;fill-opacity:1;stroke:none"
       d="m 268.2594,484.33212 c 0,0 1.16607,22.38774 1.01016,33.58757 -0.081,5.81757 -1.01015,17.42514 -1.01015,17.42514 l 5.05076,0 c 0,0 -0.75583,-15.27395 -1.48425,-22.88278 -0.90074,-9.40869 -3.56652,-28.12993 -3.56652,-28.12993 z"
       id="path14354-8-3-58"
       inkscape:connector-curvature="0"
       sodipodi:nodetypes="csccsc" />
    <path
       style="fill:#2c9921;fill-opacity:1;stroke:none"
       d="m 264.72387,482.8169 c 0,0 1.16607,22.38774 1.01016,33.58757 -0.081,5.81757 -1.01015,17.42514 -1.01015,17.42514 l 5.05076,0 c 0,0 -0.75583,-15.27395 -1.48425,-22.88278 -0.90074,-9.40869 -3.56652,-28.12993 -3.56652,-28.12993 z"
       id="path14354-5-4-88"
       inkscape:connector-curvature="0"
       sodipodi:nodetypes="csccsc" />
    <path
       style="fill:#2c9921;fill-opacity:1;stroke:none"
       d="m 291.26946,486.47287 c 0,0 -1.16607,22.38774 -1.01016,33.58757 0.081,5.81757 1.01015,17.42514 1.01015,17.42514 l -5.05076,0 c 0,0 0.75583,-15.27394 1.48426,-22.88278 0.90073,-9.40869 3.56651,-28.12993 3.56651,-28.12993 z"
       id="path14354-2-8-8-26"
       inkscape:connector-curvature="0"
       sodipodi:nodetypes="csccsc" />
  </g>
</svg>
