<?xml version="1.0" encoding="UTF-8" standalone="no"?>
<!-- Created with Inkscape (http://www.inkscape.org/) -->

<svg
   xmlns:dc="http://purl.org/dc/elements/1.1/"
   xmlns:cc="http://creativecommons.org/ns#"
   xmlns:rdf="http://www.w3.org/1999/02/22-rdf-syntax-ns#"
   xmlns:svg="http://www.w3.org/2000/svg"
   xmlns="http://www.w3.org/2000/svg"
   xmlns:sodipodi="http://sodipodi.sourceforge.net/DTD/sodipodi-0.dtd"
   xmlns:inkscape="http://www.inkscape.org/namespaces/inkscape"
   width="875"
   height="175"
   id="svg2"
   version="1.1"
   inkscape:version="0.48.4 r9939"
   sodipodi:docname="rooster_sprite.svg"
   inkscape:export-filename="/home/toreinar/projects/farm-animals/assets/img/chicken/rooster_sprite.png"
   inkscape:export-xdpi="90"
   inkscape:export-ydpi="90">
  <defs
     id="defs4" />
  <sodipodi:namedview
     id="base"
     pagecolor="#ffffff"
     bordercolor="#666666"
     borderopacity="1.0"
     inkscape:pageopacity="0.0"
     inkscape:pageshadow="2"
     inkscape:zoom="1.4"
     inkscape:cx="380.85427"
     inkscape:cy="78.585337"
     inkscape:document-units="px"
     inkscape:current-layer="g6919"
     showgrid="false"
     showborder="true"
     inkscape:window-width="1918"
     inkscape:window-height="1055"
     inkscape:window-x="0"
     inkscape:window-y="0"
     inkscape:window-maximized="1"
     inkscape:showpageshadow="false"
     fit-margin-top="0"
     fit-margin-left="0"
     fit-margin-right="0"
     fit-margin-bottom="0"
     borderlayer="true" />
  <metadata
     id="metadata7">
    <rdf:RDF>
      <cc:Work
         rdf:about="">
        <dc:format>image/svg+xml</dc:format>
        <dc:type
           rdf:resource="http://purl.org/dc/dcmitype/StillImage" />
        <dc:title></dc:title>
      </cc:Work>
    </rdf:RDF>
  </metadata>
  <g
     inkscape:label="rooster1"
     inkscape:groupmode="layer"
     id="layer1"
     transform="translate(-183.99546,-841.75412)"
     style="display:inline">
    <path
       style="fill:none;stroke:#000000;stroke-width:0.07163449px;stroke-linecap:butt;stroke-linejoin:miter;stroke-opacity:1"
       d="m 230.02826,944.04601 c -1.18489,0.34161 -2.39396,1.04395 -3.66012,2.59855 3.35095,9.57887 7.9325,14.83834 13.70757,18.02813 13.17505,7.27711 29.55804,0.78541 30.31401,-11.11425 0.0557,-0.87648 -1.36365,-0.57654 -1.49481,-1.54126 l -0.2596,-0.10564 -0.31957,0.10697"
       id="path3070"
       inkscape:connector-curvature="0"
       sodipodi:nodetypes="ccssccc" />
    <path
       style="fill:#ff7f2a;fill-opacity:0.98557691;stroke:#000000;stroke-width:0.32443261;stroke-miterlimit:4;stroke-opacity:0.9807692;stroke-dasharray:none"
       d="m 281.75555,1002.9861 c -0.81443,-0.775 -1.95625,-1.671 -3.01352,-2.3646 -4.003,-2.62626 -8.79844,-3.4181 -14.05289,-2.32029 -0.65473,0.13678 -1.20808,0.22736 -1.22967,0.20118 -0.0645,-0.0779 1.05154,-0.72877 1.97264,-1.15038 0.7883,-0.36078 2.86581,-0.92981 3.25873,-0.8925 0.21805,0.021 0.29534,-0.72933 0.16093,-1.56149 -0.0534,-0.33061 -0.089,-0.68684 -0.079,-0.79149 0.01,-0.10465 -0.0206,-0.20937 -0.0678,-0.23268 -0.10867,-0.0539 -0.63019,-1.38411 -0.56399,-1.43885 0.027,-0.0224 0.36296,0.3689 0.74656,0.8694 0.38359,0.50043 0.73165,0.88165 0.77346,0.84707 0.0418,-0.0343 -0.051,-0.22449 -0.20611,-0.42217 -0.15516,-0.19761 -1.64692,-2.08376 -3.31503,-4.19146 -1.6681,-2.10763 -3.01668,-3.84552 -2.99685,-3.8619 0.0198,-0.0161 0.43585,0.0789 0.92449,0.21168 1.75591,0.47733 2.40696,0.60053 3.96852,0.75117 0.87205,0.0842 2.16528,0.13741 2.8738,0.11837 0.70852,-0.0189 1.39519,-0.0252 1.52594,-0.014 l 0.23773,0.0203 -0.25361,0.33481 c -0.36793,0.4858 -1.02494,1.58571 -1.22073,2.04372 -0.0929,0.21728 -0.20533,0.43792 -0.24983,0.49021 -0.0445,0.0525 -0.10672,0.27769 -0.13827,0.50085 -0.0316,0.22316 -0.093,0.5222 -0.13659,0.66458 -0.0436,0.14238 -0.059,0.57589 -0.0343,0.96334 0.11032,1.72858 1.22543,3.16106 3.44113,4.4205 1.28643,0.73129 1.53874,0.78673 4.72673,1.03922 5.69894,0.45129 7.07639,0.60599 7.78086,0.87395 1.05437,0.40103 2.85335,1.48659 2.68885,1.6226 -0.0236,0.0196 -0.741,-0.10794 -1.59423,-0.28322 -2.65129,-0.5446 -7.23821,-0.91035 -8.48756,-0.67669 -0.14243,0.0266 0.0518,0.25179 0.78712,0.91238 0.53692,0.48239 1.1913,1.14119 1.45417,1.46409 0.50436,0.6196 1.02483,1.8351 0.93593,2.1858 -0.0465,0.1833 -0.11053,0.1487 -0.61752,-0.3338 l 0,0 z"
       id="path3854"
       inkscape:connector-curvature="0" />
    <path
       style="fill:#ff7f2a;fill-opacity:0.98557691;stroke:#000000;stroke-width:0.32443261;stroke-miterlimit:4;stroke-opacity:0.9807692;stroke-dasharray:none"
       d="m 271.25548,993.37202 c -0.42217,-0.80234 -0.56881,-1.94523 -0.35831,-2.79251 l 0.11028,-0.44387 0.45806,0.27965 c 0.68081,0.41559 1.45173,0.5775 4.80892,1.00982 5.06788,0.65268 6.56817,0.9912 7.78147,1.75546 0.53967,0.33999 1.15459,1.02606 1.13208,1.26315 -0.007,0.0738 -0.21852,0.07 -0.64133,-0.0119 -4.38411,-0.84994 -9.54099,-1.22213 -12.51467,-0.90328 -0.62847,0.0672 -0.66239,0.0609 -0.7765,-0.15631 z"
       id="path3856"
       inkscape:connector-curvature="0" />
    <path
       style="fill:#ff7f2a;fill-opacity:0.98557691;stroke:#000000;stroke-width:0.32443261;stroke-miterlimit:4;stroke-opacity:0.9807692;stroke-dasharray:none"
       d="m 274.49924,991.04732 c -0.70325,-0.10682 -1.58411,-0.28245 -1.95744,-0.39025 -0.63315,-0.18284 -0.66154,-0.203 -0.42205,-0.29911 0.62327,-0.25004 3.20252,-0.81102 4.29328,-0.93373 1.2331,-0.13867 1.82689,-0.12166 2.7492,0.079 l 0.53554,0.11655 -0.73295,0.33866 c -0.40313,0.18627 -1.19001,0.52402 -1.74864,0.75068 -0.55862,0.22659 -1.06329,0.45066 -1.1215,0.49805 -0.0582,0.0476 -0.1533,0.0744 -0.21131,0.0602 -0.058,-0.014 -0.68087,-0.11326 -1.38413,-0.22008 l 0,0 z"
       id="path3858"
       inkscape:connector-curvature="0" />
    <path
       style="fill:#ff7f2a;fill-opacity:0.98557691;stroke:#000000;stroke-width:0.32443261;stroke-miterlimit:4;stroke-opacity:0.9807692;stroke-dasharray:none"
       d="m 258.75873,995.64058 c 0.01,-0.10178 0.81356,-0.73486 1.38879,-1.09368 0.24039,-0.14994 1.23157,-0.60165 2.20263,-1.00387 1.98091,-0.82047 2.23808,-0.94857 2.84123,-1.41526 0.54342,-0.42042 0.7697,-0.76636 0.9775,-1.49415 l 0.16701,-0.58499 0.75888,1.00695 c 0.41739,0.55384 0.73158,1.00443 0.69821,1.00128 -0.0334,0 0.10657,0.42441 0.31098,0.95025 l 0.37163,0.95599 -0.33502,0.0224 c -3.78718,0.25347 -6.26831,0.67466 -8.424,1.4301 -0.97856,0.34293 -0.96882,0.34062 -0.95784,0.22498 z"
       id="path3860"
       inkscape:connector-curvature="0" />
    <path
       style="fill:#ff7f2a;fill-opacity:0.98557691;stroke:#000000;stroke-width:0.20465975;stroke-miterlimit:4;stroke-opacity:0.9807692;stroke-dasharray:none"
       d="m 308.11993,881.59307 c 0.0608,-0.45874 -0.12089,-2.64516 -0.3556,-4.27943 -0.15783,-1.09889 -0.13063,-1.38848 0.1361,-1.44931 0.87301,-0.1991 3.37165,-0.12058 4.67017,0.1468 1.37944,0.28401 4.59679,1.02024 4.67035,1.328 0.019,0.0799 -1.77979,0.52418 -2.60451,0.85297 -0.82472,0.32877 -2.60343,1.29406 -3.95271,2.14505 -1.34928,0.85099 -2.48791,1.55555 -2.53027,1.56568 -0.0423,0.0103 -0.0576,-0.12921 -0.0335,-0.30976 z"
       id="path3864"
       inkscape:connector-curvature="0"
       sodipodi:nodetypes="csssccscc" />
    <path
       style="fill:#ff0000;fill-opacity:0.98557691;stroke:#000000;stroke-width:0.18008912;stroke-miterlimit:4;stroke-opacity:0.9807692;stroke-dasharray:none"
       d="m 306.52671,889.20916 c -0.69125,-0.38007 -1.2604,-0.70602 -1.26477,-0.72431 -0.004,-0.0184 0.10256,-0.14044 0.23762,-0.27143 1.12528,-1.09128 1.90408,-2.52524 2.26274,-4.16623 l 0.12099,-0.50889 c 1.51311,1.27155 3.21267,0.74347 4.58973,0.18796 0.11111,4.93137 5.4758,7.14419 4.81706,11.03073 -0.75444,4.4513 -2.80018,-1.38705 -2.35253,-0.75995 0.26884,0.37661 0.38708,4.73368 -1.71685,2.87695 -3.70678,-3.81697 -2.98402,-4.39153 -6.69399,-7.66483 z"
       id="path3866"
       inkscape:connector-curvature="0"
       sodipodi:nodetypes="csssccsscc" />
    <path
       style="fill:#ff7f2a;fill-opacity:0.98557691;stroke:#000000;stroke-width:0.20466998;stroke-miterlimit:4;stroke-opacity:0.9807692;stroke-dasharray:none"
       d="m 308.14056,881.92331 c 0.0219,-0.0567 1.8352,0.32353 2.41837,0.18413 0.87349,-0.20878 3.01815,-1.03672 4.64845,-1.89645 -2.6529,6.67634 -8.61926,5.87468 -7.06682,1.71232 z"
       id="path3862"
       inkscape:connector-curvature="0"
       sodipodi:nodetypes="cscc" />
    <path
       style="fill:#d38d5f;fill-opacity:1;stroke:#000000;stroke-width:0.04526534;stroke-miterlimit:4;stroke-opacity:1;stroke-dasharray:none"
       d="m 298.70666,883.90344 c -0.12157,-0.10452 -0.40868,-0.33578 -0.63801,-0.51391 -1.99857,-1.55246 -2.5236,-3.62089 -1.51577,-5.97156 0.24209,-0.56467 0.80422,-1.45981 1.25175,-1.9933 1.35499,-1.61529 3.28005,-2.86561 5.08646,-3.30365 0.80641,-0.19572 1.18522,-0.21537 1.73584,-0.0908 2.09773,0.47461 3.60112,1.4276 4.27632,2.71073 0.15741,0.29915 0.16022,0.31303 0.0985,0.48709 -0.0847,0.23897 -0.0756,0.54167 0.0483,1.61171 0.28643,2.47392 0.36902,4.45504 0.20137,4.8299 -0.24577,1.08274 -0.40185,2.242 -0.77556,3.17596 -0.45142,1.11229 -1.07428,2.04542 -1.94919,2.92012 -0.26089,0.26083 -1.90533,0.9398 -1.40317,0.76142 -1.97784,-1.54814 -4.53433,-3.08071 -6.41688,-4.62371 z"
       id="path3774"
       inkscape:connector-curvature="0"
       sodipodi:nodetypes="cssscsccsccccc" />
    <path
       sodipodi:type="arc"
       style="fill:#ffffff;fill-opacity:1;stroke:#000000;stroke-width:2.43448114;stroke-miterlimit:4;stroke-opacity:1;stroke-dasharray:none"
       id="path3080"
       sodipodi:cx="806.10175"
       sodipodi:cy="11.905062"
       sodipodi:rx="28.284271"
       sodipodi:ry="34.345188"
       d="m 834.38602,11.905062 c 0,18.968323 -12.6633,34.345188 -28.28427,34.345188 -15.62098,0 -28.28428,-15.376865 -28.28428,-34.345188 0,-18.9683239 12.6633,-34.345188 28.28428,-34.345188 15.62097,0 28.28427,15.3768641 28.28427,34.345188 z"
       transform="matrix(0.1317482,-0.03149163,0.03123817,0.13068781,196.53851,902.83371)" />
    <path
       style="fill:#ff0000;fill-opacity:0.98557691;stroke:#000000;stroke-width:0.32335809;stroke-miterlimit:4;stroke-opacity:0.9807692;stroke-dasharray:none"
       d="m 309.45898,875.94815 c -0.11477,-0.006 -0.20248,-0.066 -0.34043,-0.23389 -2.31238,-6.55976 -13.51907,-4.79341 -17.30371,-3.05858 -17.98818,9.46161 -1.02595,-20.3578 3.01717,-3.61073 -6.7646,-15.98086 14.11194,-15.467 9.04035,-0.19506 4.64781,-20.69239 23.85376,-0.65769 6.1701,6.69006 -0.2114,0.43642 -0.1985,0.4274 -0.58348,0.4082 z"
       id="path3868"
       inkscape:connector-curvature="0"
       sodipodi:nodetypes="scccccs" />
    <path
       sodipodi:type="arc"
       style="fill:#000000;fill-opacity:0.98557691;stroke:#000000;stroke-width:1;stroke-miterlimit:4;stroke-opacity:0.9807692;stroke-dasharray:none"
       id="path3852"
       sodipodi:cx="799.03064"
       sodipodi:cy="17.965977"
       sodipodi:rx="17.172594"
       sodipodi:ry="20.203051"
       d="m 816.20323,17.965977 c 0,11.157836 -7.68843,20.20305 -17.17259,20.20305 -9.48416,0 -17.17259,-9.045214 -17.17259,-20.20305 0,-11.157837 7.68843,-20.2030509 17.17259,-20.2030509 9.48416,0 17.17259,9.0452139 17.17259,20.2030509 z"
       transform="matrix(0.15250899,-0.03645406,0.03632693,0.15197713,181.65062,905.67147)" />
    <path
       style="fill:#a05a2c;fill-opacity:1;stroke:#000000;stroke-width:0.32573229;stroke-miterlimit:4;stroke-opacity:0.9807692;stroke-dasharray:none"
       d="m 280.78431,986.54954 c -5.46013,1.74643 -11.70949,1.69981 -16.73188,0.97069 -6.94642,-1.36003 -12.36009,-2.14305 -17.6861,-6.77712 -5.49664,-4.51464 -7.97937,-9.72166 -9.66252,-15.09568 1.48602,1.23168 8.87112,0.17741 10.1641,-0.50089 1.1452,-0.63383 3.2253,-1.56884 4.31669,-1.81476 0.9897,-0.22299 4.17299,-0.44917 5.12562,-0.41738 0.76993,0.0257 1.18195,-0.0559 2.5662,0.46619 2.2229,0.83836 2.91179,0.9899 4.58017,1.2694 3.29262,0.55162 6.99711,0.46954 10.4005,-0.36832 1.62478,-0.39997 4.61942,-1.78279 6.14137,-2.71519 2.28118,-1.39755 3.78618,-2.99609 5.04369,-4.88297 1.63395,-2.45173 10.86193,-19.06509 10.74865,-21.71153 -0.0606,-1.41391 0.0749,-0.56361 -0.78295,-0.87354 -0.50529,-0.18256 -0.84872,-0.39718 -0.91679,-0.5485 -0.0558,-0.12398 -0.17022,-0.24494 -0.26543,-0.23957 -0.26682,0.015 -0.43357,0.035 -0.38686,0.1388 0.0231,0.0513 0.21338,-0.10279 0.33614,-0.15801 0.16606,-0.0747 0.19786,0.109 0.33045,0.27895 0.098,0.12563 0.49294,0.35125 0.8776,0.50139 l 0.69939,0.27297 c 0.12759,2.82837 -7.76344,16.98623 -8.88197,19.08428 -0.76633,2.64948 -4.09075,6.42697 -6.79048,8.03273 -1.42992,0.8505 -4.08344,2.16022 -5.72166,2.62182 -6.79098,1.91348 -13.97238,0.85662 -20.0202,-2.94627 -3.96554,-2.49354 -7.67677,-6.63308 -10.75829,-11.99984 -0.26755,-0.46596 -0.48163,-0.8538 -0.47575,-0.86188 0.006,-0.008 0.14878,-0.23799 0.31756,-0.51092 0.58426,-0.94487 1.36996,-1.71803 2.45213,-2.413 0.20985,-0.90392 -2.33209,1.89057 -2.63753,2.35089 -0.32125,0.49007 -0.35649,0.60931 -0.23494,0.7951 0.0787,0.1202 0.43151,0.54355 0.75334,1.04289 4.09991,6.36124 7.73041,10.12146 12.35756,12.83903 0.48262,0.28345 0.89196,0.46841 0.87377,0.47659 -0.0182,0.008 -0.41247,0.013 -0.87615,0.0108 -0.88771,-0.004 -3.76265,0.29861 -4.90174,0.51649 -0.99188,0.18973 -2.89382,1.00866 -4.21954,1.76902 -1.76659,1.19033 -8.19213,1.40575 -9.69974,0.82319 -2.60315,-3.12389 -37.14505,-16.14247 -2.89874,-28.35708 8.22271,-0.3011 6.87778,-1.62413 20.48025,-4.17515 19.48827,-6.86169 55.39401,-62.90467 57.59936,-26.96388 2.51512,12.47092 0.25488,39.60712 -5.8201,53.05746 -7.11336,15.74933 -14.07096,22.95289 -25.79512,27.01268 z"
       id="path3874"
       inkscape:connector-curvature="0"
       sodipodi:nodetypes="cccccsssssssssssssssccsssscsccsssssscccccscc" />
    <path
       style="fill:#ff0000;fill-opacity:1;stroke:#000000;stroke-width:0.29862547px;stroke-linecap:butt;stroke-linejoin:miter;stroke-opacity:1"
       d="m 233.70321,963.90799 c 0.56493,0.67434 2.93978,-2.05637 2.55316,-2.82044 -23.51526,-46.47197 -36.27888,12.44278 -26.33328,55.01385 -0.64288,-49.58035 7.96446,-71.07195 23.78012,-52.19341 z"
       id="path5693-7-6"
       inkscape:connector-curvature="0"
       sodipodi:nodetypes="sscs" />
    <path
       style="fill:#aa4400;fill-opacity:1;stroke:#000000;stroke-width:0.32887396;stroke-miterlimit:4;stroke-opacity:0.9807692;stroke-dasharray:none"
       d="m 304.34733,920.96455 c -2.20902,-1.1365 -2.9926,-8.60272 -4.35006,-10.69627 -1.41364,1.23607 -1.1249,5.99979 -6.29535,10.69981 -0.29005,-5.86351 -2.29767,-8.4129 -2.06602,-11.96234 -0.84755,1.16379 -5.93165,9.93246 -7.42827,10.15211 0.96125,-3.86506 1.31631,-8.1811 0.89503,-10.49493 l -5.45812,9.3598 c -2.19177,-5.27157 4.16921,-13.84386 5.00242,-19.60553 0.69024,-12.39041 -0.61452,-23.79392 10.28971,-26.78553 2.62765,-0.79193 5.79293,-1.14018 7.53059,-0.82851 1.7183,0.3082 3.73437,1.03301 4.62378,2.02136 -4.91784,-3.05464 -14.20687,3.79362 -8.67094,9.54663 0.98915,1.38009 3.50669,3.59564 8.26552,7.27406 6.55526,5.06701 6.2951,8.23532 8.51708,11.87225 1.94765,9.09952 -0.61979,14.55464 -1.93975,18.76725 -2.01095,-4.05969 -0.60908,-5.8996 -3.0727,-8.94426 -1.23087,3.52236 -4.31793,6.90801 -5.84292,9.6241 z"
       id="path3870"
       inkscape:connector-curvature="0"
       sodipodi:nodetypes="cccccccccsccscccc" />
    <path
       style="fill:#d40000;fill-opacity:1;stroke:#000000;stroke-width:0.33500049px;stroke-linecap:butt;stroke-linejoin:miter;stroke-opacity:1"
       d="m 234.94743,957.69363 c 0.69363,0.57248 1.1936,-4.04308 0.89571,-4.7854 -19.27851,-48.04056 -48.00398,16.19168 -38.5711,55.81587 3.47713,-47.52859 15.33282,-69.4709 37.67539,-51.03047 z"
       id="path5693-7-8"
       inkscape:connector-curvature="0"
       sodipodi:nodetypes="sscs" />
    <path
       style="fill:#aa4400;fill-opacity:1;stroke:#000000;stroke-width:0.24901223px;stroke-linecap:butt;stroke-linejoin:miter;stroke-opacity:1"
       d="m 234.71413,965.17423 c 0.52526,0.50279 1.55116,-0.92188 1.26063,-1.56222 -18.80287,-41.44092 -30.35404,10.40443 -19.04489,44.46039 -3.96136,-40.56424 0.86509,-59.09359 17.78426,-42.89817 z"
       id="path5693-7-4"
       inkscape:connector-curvature="0"
       sodipodi:nodetypes="sscs" />
    <path
       style="fill:#008000;fill-opacity:1;stroke:#000000;stroke-width:0.30413041px;stroke-linecap:butt;stroke-linejoin:miter;stroke-opacity:1"
       d="m 233.81289,959.1093 c 0.56591,0.65105 2.15933,-0.84791 1.91976,-1.62503 -15.50405,-50.29281 -40.70661,7.80241 -33.23339,48.56303 3.18976,-47.24225 13.08473,-67.90926 31.31363,-46.938 z"
       id="path5693-7-2"
       inkscape:connector-curvature="0"
       sodipodi:nodetypes="sscs" />
    <path
       style="fill:#008000;fill-opacity:1;stroke:#000000;stroke-width:0.35317761px;stroke-linecap:butt;stroke-linejoin:miter;stroke-opacity:1"
       d="m 232.27141,951.97907 c 0.61167,0.79285 3.0759,0.19984 2.89247,-0.72478 -10.5862,-53.35945 -51.28155,-2.35064 -48.51815,47.68609 14.48068,-44.17991 29.93468,-67.30013 45.62568,-46.96131 z"
       id="path5693-0"
       inkscape:connector-curvature="0"
       sodipodi:nodetypes="sscs" />
    <path
       style="fill:#ff0000;fill-opacity:1;stroke:#000000;stroke-width:0.35317761px;stroke-linecap:butt;stroke-linejoin:miter;stroke-opacity:1"
       d="m 234.29134,949.54432 c 0.51226,0.86043 1.92368,-0.33999 1.81128,-1.27591 -7.27381,-60.57012 -46.42536,1.30527 -46.35999,49.33105 13.492,-53.18583 28.04792,-75.77044 44.54871,-48.05514 z"
       id="path5693"
       inkscape:connector-curvature="0"
       sodipodi:nodetypes="sscs" />
    <path
       style="fill:#803300;fill-opacity:1;stroke:#000000;stroke-width:0.38913482px;stroke-linecap:butt;stroke-linejoin:miter;stroke-opacity:1"
       d="m 234.46889,948.13873 c 0.56423,0.94833 2.73469,0.87668 2.60145,-0.15369 -8.61784,-66.64236 -54.59755,-3.9501 -52.83072,48.65731 14.86105,-58.62012 32.05467,-79.05062 50.22927,-48.50362 z"
       id="path5693-7"
       inkscape:connector-curvature="0"
       sodipodi:nodetypes="sscs" />
  </g>
  <g
     style="display:inline"
     transform="translate(-183.99546,-841.75412)"
     id="g6787"
     inkscape:groupmode="layer"
     inkscape:label="rooster2">
    <path
       sodipodi:nodetypes="ccssccc"
       inkscape:connector-curvature="0"
       id="path6789"
       d="m 404.50106,943.18923 c -1.18489,0.34161 -2.39395,1.04395 -3.66012,2.59855 3.35095,9.57887 7.9325,14.83834 13.70757,18.02813 13.17505,7.27711 29.55804,0.78542 30.31401,-11.11425 0.0556,-0.87648 -1.36364,-0.57654 -1.49481,-1.54126 l -0.2596,-0.10564 -0.31957,0.10697"
       style="fill:none;stroke:#000000;stroke-width:0.07163449px;stroke-linecap:butt;stroke-linejoin:miter;stroke-opacity:1" />
    <path
       inkscape:connector-curvature="0"
       id="path6791"
       d="m 455.30858,1003.2045 c -0.75314,-0.8347 -1.82355,-1.8149 -2.82501,-2.5869 -3.79173,-2.92301 -8.51309,-4.0771 -13.8358,-3.382 -0.66323,0.0866 -1.22186,0.13482 -1.24141,0.1071 -0.0583,-0.0826 1.10391,-0.64673 2.05439,-0.99708 0.81346,-0.29981 2.92823,-0.70924 3.31716,-0.64218 0.21585,0.0371 0.34995,-0.70469 0.27919,-1.54469 -0.0281,-0.33376 -0.0365,-0.6916 -0.0186,-0.7952 0.0179,-0.1036 -0.005,-0.21035 -0.05,-0.23723 -0.10428,-0.0616 -0.52312,-1.428 -0.45296,-1.47756 0.0286,-0.0203 0.33386,0.39543 0.67829,0.92365 0.34443,0.52815 0.66251,0.93478 0.70682,0.90349 0.0443,-0.0315 -0.0337,-0.22778 -0.17341,-0.43666 -0.13969,-0.20881 -1.48373,-2.20297 -2.98676,-4.43135 -1.50302,-2.22838 -2.71556,-4.06378 -2.69455,-4.07862 0.021,-0.0147 0.4286,0.11179 0.90572,0.2814 1.71454,0.60942 2.35434,0.78176 3.89993,1.0507 0.86312,0.15029 2.14856,0.30163 2.85647,0.33656 0.70791,0.035 1.39308,0.0809 1.5226,0.10206 l 0.23549,0.0385 -0.27833,0.31458 c -0.40381,0.4564 -1.14254,1.50318 -1.37259,1.94495 -0.10918,0.20965 -0.23804,0.42105 -0.28639,0.46984 -0.0484,0.049 -0.12752,0.2688 -0.17594,0.48888 -0.0484,0.22008 -0.13244,0.51366 -0.18673,0.65226 -0.0543,0.1386 -0.10265,0.56973 -0.10746,0.95795 -0.0214,1.73194 0.98155,3.24506 3.09508,4.66935 1.2271,0.82698 1.47446,0.90146 4.63403,1.39559 5.64813,0.88326 7.00982,1.14226 7.69188,1.463 1.02083,0.48006 2.73207,1.69921 2.5577,1.82231 -0.0251,0.018 -0.73064,-0.1639 -1.56807,-0.4036 -2.6022,-0.74461 -7.14805,-1.45798 -8.41155,-1.32001 -0.14403,0.0161 0.0326,0.25501 0.71548,0.96957 0.49869,0.52174 1.10107,1.22854 1.33864,1.57044 0.45579,0.6561 0.88234,1.9077 0.76703,2.2505 -0.0603,0.1794 -0.12152,0.1399 -0.59036,-0.3797 l 0,0 z"
       style="fill:#ff7f2a;fill-opacity:0.98557691;stroke:#000000;stroke-width:0.32443261;stroke-miterlimit:4;stroke-opacity:0.9807692;stroke-dasharray:none" />
    <path
       inkscape:connector-curvature="0"
       id="path6793"
       d="m 445.56988,992.81993 c -0.35994,-0.83216 -0.41927,-1.98289 -0.14495,-2.81169 l 0.14371,-0.43421 0.43547,0.31367 c 0.64724,0.46613 1.40362,0.68614 4.71822,1.37256 5.00358,1.03607 6.4738,1.48764 7.62547,2.34199 0.51227,0.38003 1.07323,1.1109 1.03276,1.34554 -0.0126,0.0731 -0.22319,0.0532 -0.63854,-0.0609 -4.30681,-1.18083 -9.42046,-1.94404 -12.40977,-1.8522 -0.63178,0.0196 -0.66508,0.01 -0.76237,-0.2149 z"
       style="fill:#ff7f2a;fill-opacity:0.98557691;stroke:#000000;stroke-width:0.32443261;stroke-miterlimit:4;stroke-opacity:0.9807692;stroke-dasharray:none" />
    <path
       inkscape:connector-curvature="0"
       id="path6795"
       d="m 448.981,990.74856 c -0.69309,-0.16002 -1.55804,-0.40208 -1.92211,-0.53795 -0.6174,-0.23051 -0.64418,-0.2527 -0.39808,-0.33033 0.64047,-0.20195 3.25492,-0.56518 4.35185,-0.60459 1.24008,-0.0448 1.83084,0.0175 2.73523,0.28777 l 0.52514,0.15687 -0.75659,0.28196 c -0.41611,0.15505 -1.22641,0.43211 -1.80064,0.61558 -0.57424,0.18347 -1.09449,0.36855 -1.15613,0.41132 -0.0617,0.0427 -0.15851,0.0623 -0.21528,0.0441 -0.0568,-0.0182 -0.67029,-0.16464 -1.36339,-0.32466 l 0,0 z"
       style="fill:#ff7f2a;fill-opacity:0.98557691;stroke:#000000;stroke-width:0.32443261;stroke-miterlimit:4;stroke-opacity:0.9807692;stroke-dasharray:none" />
    <path
       inkscape:connector-curvature="0"
       id="path6797"
       d="m 432.93681,994.13173 c 0.0174,-0.10073 0.86709,-0.67081 1.46793,-0.9849 0.25109,-0.13118 1.27376,-0.50631 2.27259,-0.83349 2.03756,-0.66752 2.30372,-0.77567 2.94061,-1.19518 0.57381,-0.37786 0.82573,-0.7056 1.08827,-1.41547 l 0.21101,-0.57064 0.68011,1.06176 c 0.37407,0.58401 0.6531,1.05714 0.62007,1.05147 -0.033,-0.007 0.074,0.43134 0.23782,0.97111 l 0.29787,0.98154 -0.33575,0 c -3.79548,-0.035 -6.30146,0.19607 -8.50834,0.7854 -1.00181,0.26754 -0.99192,0.266 -0.97219,0.15155 z"
       style="fill:#ff7f2a;fill-opacity:0.98557691;stroke:#000000;stroke-width:0.32443261;stroke-miterlimit:4;stroke-opacity:0.9807692;stroke-dasharray:none" />
    <path
       sodipodi:nodetypes="csssccscc"
       inkscape:connector-curvature="0"
       id="path6799"
       d="m 485.47656,879.62521 c -0.0561,-0.54345 -0.77871,-2.99383 -1.41445,-4.79606 -0.42747,-1.21183 -0.47366,-1.55159 -0.23114,-1.70038 0.79373,-0.48699 3.22774,-1.13818 4.54936,-1.2171 1.40398,-0.0838 4.69704,-0.1949 4.84513,0.13579 0.0383,0.0859 -1.58859,1.12828 -2.30322,1.74949 -0.71463,0.62119 -2.19181,2.25441 -3.28263,3.62932 -1.09082,1.37492 -2.01473,2.51963 -2.05314,2.5438 -0.0383,0.0243 -0.088,-0.1309 -0.10991,-0.34486 z"
       style="fill:#ff7f2a;fill-opacity:0.98557691;stroke:#000000;stroke-width:0.22240794;stroke-miterlimit:4;stroke-opacity:0.9807692;stroke-dasharray:none" />
    <path
       sodipodi:nodetypes="csssccsscc"
       inkscape:connector-curvature="0"
       id="path6801"
       d="m 483.04621,886.30568 c -0.69125,-0.38007 -1.2604,-0.70601 -1.26477,-0.72431 -0.004,-0.0184 0.10256,-0.14043 0.23762,-0.27142 1.12528,-1.09129 1.90409,-2.52525 2.26274,-4.16623 l 0.121,-0.5089 c 1.5131,1.27156 3.21267,0.74347 4.58972,0.18796 0.11111,4.93137 5.47579,7.14419 4.81706,11.03073 -0.75443,4.4513 -2.80018,-1.38705 -2.35253,-0.75995 0.26884,0.3766 0.38709,4.73368 -1.71685,2.87696 -3.70678,-3.81699 -2.98402,-4.39155 -6.69399,-7.66484 z"
       style="fill:#ff0000;fill-opacity:0.98557691;stroke:#000000;stroke-width:0.18008912;stroke-miterlimit:4;stroke-opacity:0.9807692;stroke-dasharray:none" />
    <path
       sodipodi:nodetypes="cscc"
       inkscape:connector-curvature="0"
       id="path6803"
       d="m 485.43867,877.47726 c 0.0464,-0.0393 1.4548,1.16456 2.03332,1.32213 0.86653,0.23603 3.14541,0.5389 4.9883,0.56703 -5.53146,4.58413 -10.38114,1.01752 -7.02162,-1.88916 z"
       style="fill:#ff7f2a;fill-opacity:0.98557691;stroke:#000000;stroke-width:0.20466998;stroke-miterlimit:4;stroke-opacity:0.9807692;stroke-dasharray:none" />
    <path
       sodipodi:nodetypes="cssscsccsccccc"
       inkscape:connector-curvature="0"
       id="path6805"
       d="m 475.22616,880.99996 c -0.12157,-0.10451 -0.40867,-0.33577 -0.63802,-0.51392 -1.99856,-1.55244 -2.52359,-3.62088 -1.51575,-5.97156 0.24208,-0.56466 0.80421,-1.45979 1.25174,-1.99329 1.35499,-1.61528 3.28006,-2.86561 5.08646,-3.30365 0.80642,-0.19572 1.18522,-0.21537 1.73585,-0.0908 2.09772,0.47461 3.60111,1.4276 4.27631,2.71074 0.15741,0.29914 0.16022,0.31302 0.0985,0.48708 -0.0847,0.23897 -0.0756,0.54167 0.0483,1.61171 0.28643,2.47392 0.36903,4.45504 0.20137,4.8299 -0.24577,1.08274 -0.40185,2.242 -0.77556,3.17596 -0.45141,1.11229 -1.07427,2.04542 -1.94919,2.92012 -0.26089,0.26084 -1.90532,0.93981 -1.40316,0.76142 -1.97785,-1.54814 -4.53433,-3.0807 -6.41688,-4.62371 z"
       style="fill:#d38d5f;fill-opacity:1;stroke:#000000;stroke-width:0.04526534;stroke-miterlimit:4;stroke-opacity:1;stroke-dasharray:none" />
    <path
       transform="matrix(0.14003622,-0.03405069,0.0332033,0.14130768,366.0978,901.4829)"
       d="m 834.38602,11.905062 c 0,18.968323 -12.6633,34.345188 -28.28427,34.345188 -15.62098,0 -28.28428,-15.376865 -28.28428,-34.345188 0,-18.9683239 12.6633,-34.345188 28.28428,-34.345188 15.62097,0 28.28427,15.3768641 28.28427,34.345188 z"
       sodipodi:ry="34.345188"
       sodipodi:rx="28.284271"
       sodipodi:cy="11.905062"
       sodipodi:cx="806.10175"
       id="path6807"
       style="fill:#ffffff;fill-opacity:1;stroke:#000000;stroke-width:2.43448114;stroke-miterlimit:4;stroke-opacity:1;stroke-dasharray:none"
       sodipodi:type="arc" />
    <path
       sodipodi:nodetypes="scccccs"
       inkscape:connector-curvature="0"
       id="path6809"
       d="m 485.93619,872.57394 c -0.11492,2.1e-4 -0.20561,-0.0555 -0.35201,-0.21607 -2.64665,-6.43218 -13.74768,-4.09186 -17.4381,-2.16472 -17.47782,10.37412 -2.07148,-20.2781 2.8275,-3.7611 -7.57745,-15.61185 13.2979,-16.17222 9.01836,-0.6597 3.57757,-20.90402 23.78837,-1.88347 6.50596,6.36393 -0.18868,0.44672 -0.17626,0.43703 -0.56171,0.43766 z"
       style="fill:#ff0000;fill-opacity:0.98557691;stroke:#000000;stroke-width:0.32335809;stroke-miterlimit:4;stroke-opacity:0.9807692;stroke-dasharray:none" />
    <path
       transform="matrix(0.14535551,-0.03794551,0.034623,0.15819497,364.0445,903.72008)"
       d="m 816.20323,17.965977 c 0,11.157836 -7.68843,20.20305 -17.17259,20.20305 -9.48416,0 -17.17259,-9.045214 -17.17259,-20.20305 0,-11.157837 7.68843,-20.2030509 17.17259,-20.2030509 9.48416,0 17.17259,9.0452139 17.17259,20.2030509 z"
       sodipodi:ry="20.203051"
       sodipodi:rx="17.172594"
       sodipodi:cy="17.965977"
       sodipodi:cx="799.03064"
       id="path6811"
       style="fill:#000000;fill-opacity:0.98557691;stroke:#000000;stroke-width:1;stroke-miterlimit:4;stroke-opacity:0.9807692;stroke-dasharray:none"
       sodipodi:type="arc" />
    <path
       sodipodi:nodetypes="cccccsssssssssssssssccsssscsccsssssscccccscc"
       inkscape:connector-curvature="0"
       id="path6813"
       d="m 455.25711,985.69267 c -5.46013,1.74643 -11.70949,1.69988 -16.73188,0.97069 -6.94642,-1.35996 -12.36009,-2.14298 -17.6861,-6.77702 -5.49663,-4.51465 -7.97937,-9.72166 -9.66252,-15.09569 1.48602,1.23168 8.87112,0.17741 10.1641,-0.50088 1.1452,-0.63383 3.2253,-1.56885 4.31669,-1.81477 0.9897,-0.22298 4.17299,-0.44916 5.12563,-0.41738 0.76992,0.0257 1.18195,-0.0559 2.56619,0.46619 2.2229,0.83836 2.9118,0.9899 4.58017,1.2694 3.29262,0.55163 6.99712,0.46954 10.4005,-0.36832 1.62479,-0.39997 4.61942,-1.78278 6.14137,-2.71519 2.28119,-1.39754 3.78619,-2.99609 5.04369,-4.88297 1.63395,-2.45173 10.86193,-19.06509 10.74865,-21.71152 -0.0606,-1.41392 0.0749,-0.56361 -0.78295,-0.87355 -0.50529,-0.18256 -0.84872,-0.39718 -0.91679,-0.5485 -0.0558,-0.12397 -0.17022,-0.24494 -0.26543,-0.23957 -0.26681,0.0151 -0.43357,0.035 -0.38686,0.1388 0.0231,0.0513 0.21338,-0.10279 0.33614,-0.15801 0.16606,-0.0747 0.19786,0.10901 0.33045,0.27895 0.098,0.12564 0.49294,0.35125 0.87761,0.50139 l 0.69939,0.27298 c 0.12759,2.82836 -7.76344,16.98622 -8.88198,19.08427 -0.76633,2.64948 -4.09075,6.42697 -6.79048,8.03273 -1.42992,0.85051 -4.08344,2.16023 -5.72166,2.62182 -6.79098,1.91348 -13.97238,0.85663 -20.0202,-2.94627 -3.96554,-2.49354 -7.67677,-6.63307 -10.75829,-11.99984 -0.26754,-0.46596 -0.48163,-0.8538 -0.47575,-0.86188 0.006,-0.008 0.14878,-0.23798 0.31756,-0.51092 0.58426,-0.94487 1.36996,-1.71802 2.45213,-2.413 0.20985,-0.90392 -2.33209,1.89058 -2.63752,2.3509 -0.32126,0.49006 -0.35649,0.60931 -0.23495,0.79509 0.0787,0.12021 0.43151,0.54355 0.75334,1.04289 4.09991,6.36124 7.73041,10.12146 12.35757,12.83903 0.48261,0.28345 0.89195,0.46841 0.87376,0.47659 -0.0182,0.008 -0.41246,0.013 -0.87614,0.0108 -0.88772,-0.004 -3.76266,0.2986 -4.90175,0.51649 -0.99188,0.18972 -2.89382,1.00865 -4.21954,1.76901 -1.76659,1.19034 -8.19213,1.40576 -9.69974,0.8232 -2.60315,-3.12389 -37.14504,-16.14247 -2.89874,-28.35708 8.22272,-0.30111 6.87779,-1.62413 20.48026,-4.17515 19.48826,-6.8617 55.39401,-62.90467 57.59935,-26.96388 2.51513,12.47092 0.25488,39.60711 -5.8201,53.05745 -7.11335,15.74933 -14.07095,22.95288 -25.79512,27.01267 z"
       style="fill:#a05a2c;fill-opacity:1;stroke:#000000;stroke-width:0.32573229;stroke-miterlimit:4;stroke-opacity:0.9807692;stroke-dasharray:none" />
    <path
       sodipodi:nodetypes="sscs"
       inkscape:connector-curvature="0"
       id="path6815"
       d="m 408.27825,962.95129 c 0.54373,0.7025 3.00199,-1.9954 2.63925,-2.78339 -22.06203,-47.9272 -36.64549,11.49142 -28.025,55.0302 0.89463,-50.36283 10.16374,-71.91377 25.38575,-52.24681 z"
       style="fill:#ff0000;fill-opacity:1;stroke:#000000;stroke-width:0.30097783px;stroke-linecap:butt;stroke-linejoin:miter;stroke-opacity:1" />
    <path
       sodipodi:nodetypes="cccccccccsccscccc"
       inkscape:connector-curvature="0"
       id="path6817"
       d="m 480.86683,918.06106 c -2.20902,-1.13649 -2.9926,-8.60271 -4.35005,-10.69626 -1.41365,1.23607 -1.12491,5.99979 -6.29535,10.69981 -0.29006,-5.86351 -2.29768,-8.4129 -2.06603,-11.96234 -0.84755,1.16379 -5.93164,9.93246 -7.42826,10.15212 0.96124,-3.86506 1.3163,-8.18111 0.89502,-10.49494 l -5.45811,9.3598 c -2.19178,-5.27157 4.1692,-13.84386 5.00241,-19.60554 0.69025,-12.39039 -0.61451,-23.79391 10.28971,-26.78551 2.62765,-0.79194 5.79293,-1.14018 7.53059,-0.82851 1.7183,0.30819 3.73438,1.033 4.62378,2.02135 -4.91783,-3.05464 -14.20686,3.79362 -8.67093,9.54663 0.98915,1.38009 3.50668,3.59563 8.26551,7.27406 6.55527,5.06701 6.2951,8.23533 8.51709,11.87225 1.94764,9.09952 -0.61979,14.55464 -1.93975,18.76726 -2.01096,-4.0597 -0.60909,-5.89961 -3.07271,-8.94427 -1.23087,3.52236 -4.31793,6.90801 -5.84292,9.62409 z"
       style="fill:#aa4400;fill-opacity:1;stroke:#000000;stroke-width:0.32887396;stroke-miterlimit:4;stroke-opacity:0.9807692;stroke-dasharray:none" />
    <path
       sodipodi:nodetypes="sscs"
       inkscape:connector-curvature="0"
       id="path6819"
       d="m 409.71448,956.68056 c 0.67551,0.60314 1.31833,-4.06765 1.04361,-4.83076 -17.7789,-49.38645 -48.48064,14.92865 -40.28125,55.4592 4.94886,-48.14986 17.4786,-70.05614 39.23764,-50.62844 z"
       style="fill:#d40000;fill-opacity:1;stroke:#000000;stroke-width:0.33763936px;stroke-linecap:butt;stroke-linejoin:miter;stroke-opacity:1" />
    <path
       sodipodi:nodetypes="sscs"
       inkscape:connector-curvature="0"
       id="path6821"
       d="m 409.24938,964.26883 c 0.5094,0.52707 1.57892,-0.8872 1.30839,-1.54653 -17.50811,-42.67036 -30.66059,9.60834 -20.41326,44.5442 -2.70163,-41.31277 2.69675,-59.97501 19.10487,-42.99767 z"
       style="fill:#aa4400;fill-opacity:1;stroke:#000000;stroke-width:0.25097376px;stroke-linecap:butt;stroke-linejoin:miter;stroke-opacity:1" />
    <path
       sodipodi:nodetypes="sscs"
       inkscape:connector-curvature="0"
       id="path6823"
       d="m 408.53665,958.08226 c 0.54543,0.67889 2.18448,-0.79294 1.96913,-1.58954 -13.9366,-51.55445 -40.92702,6.64023 -34.72148,48.26288 4.65276,-47.86808 15.18327,-68.5412 32.75235,-46.67334 z"
       style="fill:#008000;fill-opacity:1;stroke:#000000;stroke-width:0.30652612px;stroke-linecap:butt;stroke-linejoin:miter;stroke-opacity:1" />
    <path
       sodipodi:nodetypes="sscs"
       inkscape:connector-curvature="0"
       id="path6825"
       d="m 407.21704,950.79384 c 0.58677,0.82431 3.06809,0.2998 2.91341,-0.64482 -8.92626,-54.51334 -51.18158,-4.002 -49.97097,46.89107 15.84278,-44.40306 32.00544,-67.39202 47.05756,-46.24625 z"
       style="fill:#008000;fill-opacity:1;stroke:#000000;stroke-width:0.35595965px;stroke-linecap:butt;stroke-linejoin:miter;stroke-opacity:1" />
    <path
       sodipodi:nodetypes="sscs"
       inkscape:connector-curvature="0"
       id="path6827"
       d="m 409.31139,948.38528 c 0.48532,0.88979 1.93322,-0.28463 1.84989,-1.23847 -5.39207,-61.73056 -46.44132,-0.13693 -47.86497,48.62929 15.13384,-53.57859 30.38229,-76.052 46.01508,-47.39082 z"
       style="fill:#ff0000;fill-opacity:1;stroke:#000000;stroke-width:0.35595965px;stroke-linecap:butt;stroke-linejoin:miter;stroke-opacity:1" />
    <path
       sodipodi:nodetypes="sscs"
       inkscape:connector-curvature="0"
       id="path6829"
       d="m 409.53243,946.96367 c 0.53452,0.98068 2.70607,0.9763 2.60484,-0.0741 -6.54712,-67.93851 -54.44625,-5.7305 -54.31137,47.74141 16.67063,-59.05335 34.4886,-79.25644 51.70653,-47.6673 z"
       style="fill:#803300;fill-opacity:1;stroke:#000000;stroke-width:0.39220011px;stroke-linecap:butt;stroke-linejoin:miter;stroke-opacity:1" />
  </g>
  <g
     inkscape:label="rooster3"
     inkscape:groupmode="layer"
     id="g6831"
     transform="translate(-183.99546,-841.75412)"
     style="display:inline">
    <path
       style="fill:none;stroke:#000000;stroke-width:0.07163449px;stroke-linecap:butt;stroke-linejoin:miter;stroke-opacity:1"
       d="m 579.63989,941.65043 c -1.1849,0.34161 -2.39396,1.04396 -3.66013,2.59856 3.35095,9.57887 7.9325,14.83833 13.70758,18.02813 13.17505,7.27711 29.55804,0.78541 30.314,-11.11425 0.0557,-0.87649 -1.36364,-0.57654 -1.49481,-1.54127 l -0.2596,-0.10564 -0.31957,0.10698"
       id="path6833"
       inkscape:connector-curvature="0"
       sodipodi:nodetypes="ccssccc" />
    <path
       style="fill:#ff7f2a;fill-opacity:0.98557691;stroke:#000000;stroke-width:0.32443261;stroke-miterlimit:4;stroke-opacity:0.9807692;stroke-dasharray:none"
       d="m 630.44741,1002.3821 c -0.75315,-0.8347 -1.82355,-1.8149 -2.82501,-2.58688 -3.79174,-2.92306 -8.5131,-4.07715 -13.8358,-3.38205 -0.66324,0.0866 -1.22187,0.13482 -1.24141,0.10717 -0.0583,-0.0827 1.1039,-0.64673 2.05439,-0.99708 0.81346,-0.29988 2.92822,-0.70931 3.31716,-0.64218 0.21584,0.0371 0.34994,-0.70476 0.27918,-1.54476 -0.0281,-0.33376 -0.0365,-0.6916 -0.0186,-0.7952 0.0179,-0.1036 -0.005,-0.21035 -0.05,-0.23723 -0.10428,-0.0616 -0.52312,-1.428 -0.45296,-1.47749 0.0286,-0.0203 0.33387,0.39543 0.67829,0.92358 0.34444,0.52822 0.66251,0.93478 0.70682,0.90349 0.0443,-0.0315 -0.0337,-0.22771 -0.17341,-0.43659 -0.13968,-0.20888 -1.48373,-2.20297 -2.98675,-4.43135 -1.50302,-2.22845 -2.71557,-4.06378 -2.69455,-4.07862 0.021,-0.0147 0.42859,0.11172 0.90572,0.28133 1.71454,0.60942 2.35434,0.78183 3.89992,1.0507 0.86312,0.15029 2.14856,0.30163 2.85648,0.33656 0.70791,0.035 1.39308,0.0809 1.52259,0.10213 l 0.23549,0.0385 -0.27833,0.31458 c -0.4038,0.45633 -1.14254,1.50311 -1.37259,1.94488 -0.10918,0.20965 -0.23804,0.42112 -0.28639,0.46984 -0.0484,0.049 -0.12752,0.2688 -0.17594,0.48888 -0.0484,0.22015 -0.13244,0.51366 -0.18673,0.65226 -0.0543,0.13867 -0.10265,0.56973 -0.10746,0.95795 -0.0214,1.73194 0.98155,3.24506 3.09508,4.66942 1.2271,0.82691 1.47446,0.90139 4.63404,1.39552 5.64812,0.88333 7.00982,1.14233 7.69188,1.46307 1.02082,0.47999 2.73206,1.69925 2.5577,1.82231 -0.0251,0.0175 -0.73065,-0.16401 -1.56808,-0.40362 -2.6022,-0.74466 -7.14804,-1.45803 -8.41154,-1.32006 -0.14404,0.0154 0.0326,0.25501 0.71548,0.96964 0.49868,0.52178 1.10107,1.2285 1.33863,1.5704 0.45579,0.6561 0.88235,1.9076 0.76704,2.2506 -0.0603,0.1792 -0.12152,0.1399 -0.59036,-0.3797 l 0,0 z"
       id="path6835"
       inkscape:connector-curvature="0" />
    <path
       style="fill:#ff7f2a;fill-opacity:0.98557691;stroke:#000000;stroke-width:0.32443261;stroke-miterlimit:4;stroke-opacity:0.9807692;stroke-dasharray:none"
       d="m 620.70871,991.9975 c -0.35994,-0.83216 -0.41928,-1.98282 -0.14495,-2.81169 l 0.1437,-0.43414 0.43548,0.3136 c 0.64724,0.4662 1.40362,0.68621 4.71821,1.37256 5.00358,1.03614 6.47381,1.48771 7.62548,2.34206 0.51226,0.37996 1.07322,1.11083 1.03275,1.34554 -0.0126,0.0731 -0.22318,0.0532 -0.63854,-0.0609 -4.3068,-1.18083 -9.42046,-1.94404 -12.40977,-1.8522 -0.63178,0.0196 -0.66508,0.01 -0.76236,-0.2149 z"
       id="path6837"
       inkscape:connector-curvature="0" />
    <path
       style="fill:#ff7f2a;fill-opacity:0.98557691;stroke:#000000;stroke-width:0.32443261;stroke-miterlimit:4;stroke-opacity:0.9807692;stroke-dasharray:none"
       d="m 624.11982,989.92613 c -0.69309,-0.15995 -1.55804,-0.40201 -1.9221,-0.53795 -0.6174,-0.23044 -0.64419,-0.2527 -0.39808,-0.33026 0.64047,-0.20195 3.25491,-0.56518 4.35184,-0.60466 1.24008,-0.0448 1.83084,0.0175 2.73524,0.28777 l 0.52514,0.15694 -0.75659,0.28196 c -0.41612,0.15505 -1.22642,0.43204 -1.80065,0.61551 -0.57424,0.18347 -1.09448,0.36855 -1.15612,0.41132 -0.0617,0.0427 -0.15851,0.0623 -0.21528,0.0441 -0.0568,-0.0189 -0.67029,-0.16464 -1.3634,-0.32459 l 0,0 z"
       id="path6839"
       inkscape:connector-curvature="0" />
    <path
       style="fill:#ff7f2a;fill-opacity:0.98557691;stroke:#000000;stroke-width:0.32443261;stroke-miterlimit:4;stroke-opacity:0.9807692;stroke-dasharray:none"
       d="m 608.07564,993.30937 c 0.0174,-0.10073 0.86709,-0.67088 1.46793,-0.9849 0.25109,-0.13125 1.27375,-0.50631 2.27258,-0.83356 2.03756,-0.66745 2.30372,-0.77567 2.94062,-1.19511 0.5738,-0.37793 0.82572,-0.7056 1.08826,-1.41554 l 0.21101,-0.57057 0.68012,1.06176 c 0.37406,0.58401 0.6531,1.05714 0.62006,1.0514 -0.033,-0.007 0.074,0.43134 0.23782,0.97118 l 0.29787,0.98147 -0.33574,0 c -3.79549,-0.035 -6.30147,0.19614 -8.50835,0.78547 -1.00181,0.26754 -0.99191,0.266 -0.97218,0.15148 z"
       id="path6841"
       inkscape:connector-curvature="0" />
    <path
       style="fill:#ff7f2a;fill-opacity:0.98557691;stroke:#000000;stroke-width:0.22240794;stroke-miterlimit:4;stroke-opacity:0.9807692;stroke-dasharray:none"
       d="m 662.74994,875.01558 c -0.13779,-0.52868 -1.22365,-2.84115 -2.12529,-4.52615 -0.60628,-1.13301 -0.70345,-1.46183 -0.48629,-1.64567 0.71071,-0.60172 3.01785,-1.61443 4.31222,-1.89282 1.37504,-0.29575 4.61318,-0.90482 4.8097,-0.60042 0.0509,0.0791 -1.39915,1.35611 -2.01132,2.07849 -0.61218,0.72236 -1.82465,2.56067 -2.69439,4.08508 -0.86974,1.52442 -1.60941,2.79599 -1.64371,2.82569 -0.0342,0.0298 -0.10682,-0.11604 -0.16092,-0.3242 z"
       id="path6843"
       inkscape:connector-curvature="0"
       sodipodi:nodetypes="csssccscc" />
    <path
       style="fill:#ff0000;fill-opacity:0.98557691;stroke:#000000;stroke-width:0.18008912;stroke-miterlimit:4;stroke-opacity:0.9807692;stroke-dasharray:none"
       d="m 659.72006,882.72019 c -0.69125,-0.38008 -1.2604,-0.70602 -1.26477,-0.72432 -0.004,-0.0184 0.10256,-0.14043 0.23762,-0.27142 1.12528,-1.09129 1.90409,-2.52524 2.26274,-4.16623 l 0.12099,-0.5089 c 1.51311,1.27156 3.21267,0.74347 4.58973,0.18797 0.11111,4.93137 5.47579,7.14418 4.81706,11.03072 -0.75444,4.4513 -2.80018,-1.38705 -2.35253,-0.75995 0.26884,0.37661 0.38709,4.73368 -1.71685,2.87696 -3.70678,-3.81698 -2.98402,-4.39154 -6.69399,-7.66483 z"
       id="path6845"
       inkscape:connector-curvature="0"
       sodipodi:nodetypes="csssccsscc" />
    <path
       style="fill:#ff7f2a;fill-opacity:0.98557691;stroke:#000000;stroke-width:0.20466998;stroke-miterlimit:4;stroke-opacity:0.9807692;stroke-dasharray:none"
       d="m 662.59137,874.04768 c 0.0534,-0.0289 1.18659,1.43688 1.7208,1.70918 0.80015,0.40785 2.96929,1.1693 4.76768,1.57284 -6.3504,3.35915 -10.37038,-1.12192 -6.48848,-3.28202 z"
       id="path6847"
       inkscape:connector-curvature="0"
       sodipodi:nodetypes="cscc" />
    <path
       style="fill:#d38d5f;fill-opacity:1;stroke:#000000;stroke-width:0.04526534;stroke-miterlimit:4;stroke-opacity:1;stroke-dasharray:none"
       d="m 651.90001,877.15862 c -0.12157,-0.10451 -0.40868,-0.33577 -0.63802,-0.51391 -1.99856,-1.55245 -2.52359,-3.62089 -1.51576,-5.97156 0.24209,-0.56466 0.80422,-1.4598 1.25175,-1.99329 1.35499,-1.61529 3.28005,-2.86561 5.08646,-3.30366 0.80641,-0.19571 1.18522,-0.21537 1.73584,-0.0908 2.09773,0.4746 3.60112,1.42759 4.27632,2.71073 0.15741,0.29914 0.16022,0.31303 0.0985,0.48708 -0.0847,0.23898 -0.0756,0.54167 0.0483,1.61171 0.28643,2.47392 0.36902,4.45505 0.20137,4.8299 -0.24577,1.08274 -0.40185,2.24201 -0.77556,3.17597 -0.45142,1.11228 -1.07428,2.04541 -1.94919,2.92012 -0.26089,0.26082 -1.90533,0.9398 -1.40317,0.76142 -1.97784,-1.54815 -4.53432,-3.08071 -6.41688,-4.62371 z"
       id="path6849"
       inkscape:connector-curvature="0"
       sodipodi:nodetypes="cssscsccsccccc" />
    <path
       sodipodi:type="arc"
       style="fill:#ffffff;fill-opacity:1;stroke:#000000;stroke-width:2.43448114;stroke-miterlimit:4;stroke-opacity:1;stroke-dasharray:none"
       id="path6851"
       sodipodi:cx="806.10175"
       sodipodi:cy="11.905062"
       sodipodi:rx="28.284271"
       sodipodi:ry="34.345188"
       d="m 834.38602,11.905062 c 0,18.968323 -12.6633,34.345188 -28.28427,34.345188 -15.62098,0 -28.28428,-15.376865 -28.28428,-34.345188 0,-18.9683239 12.6633,-34.345188 28.28428,-34.345188 15.62097,0 28.28427,15.3768641 28.28427,34.345188 z"
       transform="matrix(0.14003622,-0.03405069,0.0332033,0.14130768,542.77164,897.8974)" />
    <path
       style="fill:#ff0000;fill-opacity:0.98557691;stroke:#000000;stroke-width:0.32335809;stroke-miterlimit:4;stroke-opacity:0.9807692;stroke-dasharray:none"
       d="m 661.84968,868.24951 c -0.11456,0.009 -0.20928,-0.0395 -0.36763,-0.18828 -3.13483,-6.20889 -14.02231,-3.01938 -17.55311,-0.81335 -16.62566,11.69119 -3.62925,-20.05795 2.52901,-3.96798 -8.75895,-14.98094 12.011,-17.14965 8.94061,-1.35327 1.9547,-21.11768 23.57226,-3.71254 6.9774,5.84319 -0.15366,0.45994 -0.14202,0.44933 -0.52628,0.47969 z"
       id="path6853"
       inkscape:connector-curvature="0"
       sodipodi:nodetypes="scccccs" />
    <path
       sodipodi:type="arc"
       style="fill:#000000;fill-opacity:0.98557691;stroke:#000000;stroke-width:1;stroke-miterlimit:4;stroke-opacity:0.9807692;stroke-dasharray:none"
       id="path6855"
       sodipodi:cx="799.03064"
       sodipodi:cy="17.965977"
       sodipodi:rx="17.172594"
       sodipodi:ry="20.203051"
       d="m 816.20323,17.965977 c 0,11.157836 -7.68843,20.20305 -17.17259,20.20305 -9.48416,0 -17.17259,-9.045214 -17.17259,-20.20305 0,-11.157837 7.68843,-20.2030509 17.17259,-20.2030509 9.48416,0 17.17259,9.0452139 17.17259,20.2030509 z"
       transform="matrix(0.14535551,-0.03794551,0.034623,0.15819497,540.71835,900.13458)" />
    <path
       style="fill:#a05a2c;fill-opacity:1;stroke:#000000;stroke-width:0.32573229;stroke-miterlimit:4;stroke-opacity:0.9807692;stroke-dasharray:none"
       d="m 630.39594,984.15393 c -5.46014,1.7465 -11.70949,1.69988 -16.73189,0.97069 -6.94642,-1.35996 -12.36009,-2.14298 -17.6861,-6.77708 -5.49663,-4.51465 -7.97936,-9.72166 -9.66252,-15.09569 1.48602,1.23169 8.87112,0.17742 10.16411,-0.50087 1.1452,-0.63383 3.2253,-1.56885 4.31669,-1.81478 0.98969,-0.22298 4.17298,-0.44916 5.12562,-0.41738 0.76992,0.0257 1.18195,-0.0559 2.56619,0.4662 2.2229,0.83836 2.9118,0.98989 4.58017,1.2694 3.29262,0.55162 6.99712,0.46954 10.40051,-0.36832 1.62478,-0.39998 4.61941,-1.78279 6.14136,-2.7152 2.28119,-1.39753 3.78619,-2.99608 5.0437,-4.88297 1.63394,-2.45173 10.86193,-19.06508 10.74864,-21.71152 -0.0606,-1.41391 0.0749,-0.56361 -0.78295,-0.87354 -0.50528,-0.18256 -0.84872,-0.39718 -0.91679,-0.5485 -0.0558,-0.12398 -0.17021,-0.24495 -0.26543,-0.23958 -0.26681,0.015 -0.43356,0.035 -0.38685,0.13881 0.0231,0.0513 0.21338,-0.10279 0.33614,-0.15801 0.16606,-0.0747 0.19786,0.10901 0.33045,0.27895 0.098,0.12563 0.49294,0.35125 0.8776,0.50138 l 0.69939,0.27298 c 0.12759,2.82836 -7.76344,16.98622 -8.88198,19.08427 -0.76632,2.64948 -4.09075,6.42697 -6.79047,8.03273 -1.42993,0.85051 -4.08345,2.16023 -5.72166,2.62182 -6.79098,1.91348 -13.97239,0.85664 -20.02021,-2.94627 -3.96553,-2.49354 -7.67676,-6.63306 -10.75828,-11.99983 -0.26755,-0.46596 -0.48164,-0.85381 -0.47576,-0.86188 0.006,-0.008 0.14879,-0.23799 0.31756,-0.51093 0.58427,-0.94486 1.36997,-1.71802 2.45213,-2.41299 0.20986,-0.90393 -2.33208,1.89057 -2.63752,2.3509 -0.32125,0.49005 -0.35649,0.6093 -0.23494,0.79508 0.0786,0.12022 0.43151,0.54355 0.75334,1.04289 4.09991,6.36125 7.73041,10.12146 12.35756,12.83904 0.48262,0.28344 0.89195,0.4684 0.87376,0.47659 -0.0182,0.008 -0.41246,0.013 -0.87614,0.0108 -0.88772,-0.004 -3.76265,0.2986 -4.90174,0.51648 -0.99189,0.18973 -2.89382,1.00866 -4.21955,1.76902 -1.76659,1.19033 -8.19212,1.40575 -9.69974,0.82319 -2.60315,-3.12388 -37.14504,-16.14247 -2.89874,-28.35708 8.22272,-0.3011 6.87779,-1.62413 20.48026,-4.17515 19.48827,-6.86169 55.39401,-62.90466 57.59935,-26.96387 2.51513,12.47091 0.25489,39.6071 -5.8201,53.05744 -7.11335,15.74934 -14.07095,22.95291 -25.79512,27.01273 z"
       id="path6857"
       inkscape:connector-curvature="0"
       sodipodi:nodetypes="cccccsssssssssssssssccsssscsccsssssscccccscc" />
    <path
       style="fill:#ff0000;fill-opacity:1;stroke:#000000;stroke-width:0.30097783px;stroke-linecap:butt;stroke-linejoin:miter;stroke-opacity:1"
       d="m 583.59316,961.08834 c 0.48733,0.74273 3.14835,-1.75541 2.84812,-2.56927 -18.26028,-49.50062 -37.42953,8.60092 -32.22795,52.67913 4.81638,-50.14006 15.73663,-70.90318 29.37983,-50.10986 z"
       id="path6859"
       inkscape:connector-curvature="0"
       sodipodi:nodetypes="sscs" />
    <path
       style="fill:#aa4400;fill-opacity:1;stroke:#000000;stroke-width:0.32887396;stroke-miterlimit:4;stroke-opacity:0.9807692;stroke-dasharray:none"
       d="m 657.54068,914.47557 c -2.20902,-1.1365 -2.9926,-8.60272 -4.35006,-10.69626 -1.41364,1.23606 -1.1249,5.99978 -6.29535,10.69981 -0.29005,-5.86352 -2.29767,-8.41291 -2.06602,-11.96235 -0.84755,1.1638 -5.93165,9.93246 -7.42827,10.15212 0.96125,-3.86506 1.31631,-8.18111 0.89503,-10.49494 l -5.45812,9.3598 c -2.19177,-5.27157 4.16921,-13.84385 5.00242,-19.60553 0.69024,-12.3904 -0.61452,-23.79391 10.28971,-26.78552 2.62765,-0.79194 5.79293,-1.14018 7.53059,-0.82851 1.7183,0.3082 3.73437,1.033 4.62378,2.02135 -4.91784,-3.05463 -14.20686,3.79363 -8.67094,9.54664 0.98915,1.38008 3.50669,3.59563 8.26552,7.27405 6.55526,5.06701 6.2951,8.23533 8.51708,11.87226 1.94765,9.09952 -0.61978,14.55463 -1.93975,18.76725 -2.01095,-4.05969 -0.60908,-5.89961 -3.0727,-8.94427 -1.23087,3.52236 -4.31793,6.90802 -5.84292,9.6241 z"
       id="path6861"
       inkscape:connector-curvature="0"
       sodipodi:nodetypes="cccccccccsccscccc" />
    <path
       style="fill:#d40000;fill-opacity:1;stroke:#000000;stroke-width:0.33763936px;stroke-linecap:butt;stroke-linejoin:miter;stroke-opacity:1"
       d="m 585.51367,954.94859 c 0.62645,0.65394 1.63128,-3.95255 1.41686,-4.73475 -13.87645,-50.62168 -49.49653,11.10546 -44.48036,52.15176 8.68584,-47.61789 22.88449,-68.48118 43.0635,-47.41701 z"
       id="path6863"
       inkscape:connector-curvature="0"
       sodipodi:nodetypes="sscs" />
    <path
       style="fill:#aa4400;fill-opacity:1;stroke:#000000;stroke-width:0.25097376px;stroke-linecap:butt;stroke-linejoin:miter;stroke-opacity:1"
       d="m 584.45867,962.47756 c 0.46677,0.56515 1.64325,-0.76148 1.42492,-1.43988 -14.12983,-43.90492 -31.31607,7.18993 -23.82225,42.81812 0.52584,-41.39773 7.36204,-59.58256 22.39733,-41.37824 z"
       id="path6865"
       inkscape:connector-curvature="0"
       sodipodi:nodetypes="sscs" />
    <path
       style="fill:#008000;fill-opacity:1;stroke:#000000;stroke-width:0.30652612px;stroke-linecap:butt;stroke-linejoin:miter;stroke-opacity:1"
       d="m 584.23019,956.25424 c 0.49087,0.71934 2.23963,-0.62029 2.08701,-1.43126 -9.87691,-52.48368 -41.32001,3.43085 -38.37675,45.41062 8.36868,-47.36009 20.4781,-67.14977 36.28974,-43.97936 z"
       id="path6867"
       inkscape:connector-curvature="0"
       sodipodi:nodetypes="sscs" />
    <path
       style="fill:#008000;fill-opacity:1;stroke:#000000;stroke-width:0.35595965px;stroke-linecap:butt;stroke-linejoin:miter;stroke-opacity:1"
       d="m 583.48253,948.88517 c 0.52075,0.86753 3.0354,0.53796 2.95481,-0.41584 -4.65123,-55.04315 -50.71411,-7.9781 -53.47297,42.85463 19.25466,-43.03359 37.15956,-64.69319 50.51816,-42.43879 z"
       id="path6869"
       inkscape:connector-curvature="0"
       sodipodi:nodetypes="sscs" />
    <path
       style="fill:#ff0000;fill-opacity:1;stroke:#000000;stroke-width:0.35595965px;stroke-linecap:butt;stroke-linejoin:miter;stroke-opacity:1"
       d="m 585.7582,946.64713 c 0.41452,0.9249 1.94951,-0.13312 1.94078,-1.09056 -0.5654,-61.96303 -46.28944,-3.7554 -51.50882,44.75169 19.26287,-52.23648 36.21617,-73.45334 49.56804,-43.66113 z"
       id="path6871"
       inkscape:connector-curvature="0"
       sodipodi:nodetypes="sscs" />
    <path
       style="fill:#803300;fill-opacity:1;stroke:#000000;stroke-width:0.39220011px;stroke-linecap:butt;stroke-linejoin:miter;stroke-opacity:1"
       d="m 586.08934,945.24706 c 0.45648,1.01936 2.62176,1.1842 2.6027,0.1291 -1.23319,-68.24211 -53.83415,-9.95575 -57.86643,43.3641 21.22162,-57.57475 40.5597,-76.32797 55.26373,-43.4932 z"
       id="path6873"
       inkscape:connector-curvature="0"
       sodipodi:nodetypes="sscs" />
  </g>
  <g
     style="display:inline"
     transform="translate(-183.99546,-841.75412)"
     id="g6875"
     inkscape:groupmode="layer"
     inkscape:label="rooster4">
    <path
       sodipodi:nodetypes="ccssccc"
       inkscape:connector-curvature="0"
       id="path6877"
       d="m 754.69036,944.4731 c -1.18356,0.34614 -2.38993,1.05311 -3.65014,2.61256 3.38762,9.56595 7.98929,14.80784 13.77654,17.97548 13.20282,7.22659 29.56083,0.67218 30.27121,-11.23029 0.0523,-0.87669 -1.36585,-0.57131 -1.50071,-1.53553 l -0.26001,-0.10464 -0.31915,0.10819"
       style="fill:none;stroke:#000000;stroke-width:0.07163449px;stroke-linecap:butt;stroke-linejoin:miter;stroke-opacity:1" />
    <path
       inkscape:connector-curvature="0"
       id="path6879"
       d="m 806.64306,1003.2145 c -0.81738,-0.7719 -1.96264,-1.6634 -3.02256,-2.3529 -4.01303,-2.61096 -8.81146,-3.38444 -14.06168,-2.26653 -0.6542,0.13927 -1.20719,0.23202 -1.22888,0.20586 -0.0648,-0.0777 1.04874,-0.73273 1.96821,-1.15788 0.78692,-0.3638 2.86224,-0.94078 3.2553,-0.90501 0.21812,0.0201 0.29254,-0.73045 0.15494,-1.56209 -0.0546,-0.3304 -0.0916,-0.68647 -0.0821,-0.79118 0.01,-0.10464 -0.0214,-0.20929 -0.0687,-0.23238 -0.10887,-0.0535 -0.63549,-1.38173 -0.5695,-1.43667 0.0269,-0.0222 0.36438,0.36748 0.74989,0.86653 0.38551,0.49891 0.73502,0.87879 0.7767,0.84408 0.0417,-0.0346 -0.0518,-0.22432 -0.20773,-0.42141 -0.15591,-0.19702 -1.65489,-2.07742 -3.33106,-4.17869 -1.67616,-2.10126 -3.0314,-3.83397 -3.01163,-3.85038 0.0197,-0.0159 0.43615,0.0772 0.9253,0.20814 1.75772,0.47056 2.40924,0.59126 3.97136,0.73594 0.87237,0.0808 2.1658,0.12909 2.87423,0.10729 0.70845,-0.0218 1.3951,-0.0305 1.52588,-0.0196 l 0.23781,0.0196 -0.25232,0.33577 c -0.36607,0.48717 -1.01886,1.58962 -1.2129,2.0484 -0.0921,0.21761 -0.20365,0.43868 -0.24796,0.49115 -0.0443,0.0528 -0.10565,0.27811 -0.13634,0.50136 -0.0308,0.22332 -0.091,0.52254 -0.13405,0.66511 -0.0431,0.14257 -0.0568,0.57612 -0.0306,0.96346 0.11695,1.72813 1.23753,3.15637 3.45804,4.40731 1.28922,0.72633 1.54174,0.78082 4.73068,1.02111 5.70062,0.42944 7.07864,0.57888 7.78415,0.84412 1.05589,0.39696 2.85902,1.47562 2.69504,1.6123 -0.0236,0.0194 -0.74141,-0.10507 -1.59529,-0.27713 -2.65337,-0.53446 -7.24166,-0.88265 -8.4901,-0.6442 -0.14233,0.0275 0.0528,0.25163 0.79061,0.90938 0.53877,0.48024 1.19566,1.13654 1.45977,1.45844 0.50673,0.6177 1.03185,1.8312 0.94429,2.1822 -0.0458,0.1835 -0.10995,0.1492 -0.61879,-0.3315 l 0,0 z"
       style="fill:#ff7f2a;fill-opacity:0.98557691;stroke:#000000;stroke-width:0.32443261;stroke-miterlimit:4;stroke-opacity:0.9807692;stroke-dasharray:none" />
    <path
       inkscape:connector-curvature="0"
       id="path6881"
       d="m 796.10624,993.64079 c -0.42523,-0.80076 -0.57626,-1.94305 -0.369,-2.79115 l 0.10857,-0.44427 0.45913,0.27786 c 0.6824,0.41302 1.45393,0.57194 4.81275,0.99145 5.07035,0.63325 6.57192,0.96598 7.78814,1.72563 0.54097,0.33793 1.15851,1.02157 1.13691,1.25876 -0.007,0.0738 -0.21825,0.0708 -0.64134,-0.0126 -4.38733,-0.8331 -9.5456,-1.18557 -12.51804,-0.85533 -0.62821,0.0696 -0.66215,0.0635 -0.77709,-0.1533 z"
       style="fill:#ff7f2a;fill-opacity:0.98557691;stroke:#000000;stroke-width:0.32443261;stroke-miterlimit:4;stroke-opacity:0.9807692;stroke-dasharray:none" />
    <path
       inkscape:connector-curvature="0"
       id="path6883"
       d="m 799.34106,991.30363 c -0.70365,-0.10405 -1.58517,-0.27635 -1.95892,-0.38272 -0.63383,-0.1804 -0.6623,-0.20046 -0.42318,-0.2975 0.6223,-0.25238 3.19939,-0.82324 4.28966,-0.95016 1.23257,-0.14339 1.82641,-0.12868 2.74949,0.0681 l 0.53598,0.11451 -0.73164,0.34146 c -0.40242,0.1878 -1.188,0.52858 -1.74576,0.75731 -0.55775,0.22873 -1.06156,0.45479 -1.11957,0.50237 -0.0579,0.0478 -0.15303,0.0751 -0.21109,0.0612 -0.0581,-0.0138 -0.6813,-0.11067 -1.38496,-0.21481 l 0,0 z"
       style="fill:#ff7f2a;fill-opacity:0.98557691;stroke:#000000;stroke-width:0.32443261;stroke-miterlimit:4;stroke-opacity:0.9807692;stroke-dasharray:none" />
    <path
       inkscape:connector-curvature="0"
       id="path6885"
       d="m 783.61826,995.95719 c 0.009,-0.10185 0.81076,-0.73796 1.3846,-1.099 0.23981,-0.15086 1.22926,-0.60635 2.19877,-1.0123 1.97776,-0.82802 2.23442,-0.95711 2.83579,-1.42613 0.5418,-0.4225 0.76676,-0.76929 0.97176,-1.4979 l 0.16477,-0.58561 0.76274,1.00405 c 0.4195,0.55221 0.73542,1.00158 0.70203,0.99856 -0.0334,1.3e-4 0.1082,0.42404 0.31462,0.94911 l 0.37529,0.95454 -0.33493,0.0237 c -3.78617,0.26797 -6.26568,0.69869 -8.41845,1.46232 -0.97726,0.34674 -0.96752,0.34437 -0.95699,0.22868 z"
       style="fill:#ff7f2a;fill-opacity:0.98557691;stroke:#000000;stroke-width:0.32443261;stroke-miterlimit:4;stroke-opacity:0.9807692;stroke-dasharray:none" />
    <path
       sodipodi:nodetypes="csssccscc"
       inkscape:connector-curvature="0"
       id="path6887"
       d="m 832.54222,881.72147 c 0.0591,-0.45897 -0.13102,-2.64468 -0.37199,-4.27803 -0.16202,-1.09829 -0.13594,-1.38797 0.13056,-1.44983 0.87223,-0.20244 3.37116,-0.13349 4.67069,0.12887 1.38051,0.27871 4.60066,1.00261 4.6754,1.3101 0.0192,0.0799 -1.77776,0.53098 -2.60122,0.86293 -0.82345,0.33194 -2.59845,1.30402 -3.94447,2.16019 -1.34601,0.85615 -2.48193,1.56506 -2.52425,1.57535 -0.0423,0.0104 -0.0581,-0.12898 -0.0347,-0.30963 z"
       style="fill:#ff7f2a;fill-opacity:0.98557691;stroke:#000000;stroke-width:0.20465975;stroke-miterlimit:4;stroke-opacity:0.9807692;stroke-dasharray:none" />
    <path
       sodipodi:nodetypes="csssccsscc"
       inkscape:connector-curvature="0"
       id="path6889"
       d="m 830.97819,889.34361 c -0.69271,-0.37742 -1.26309,-0.70118 -1.26753,-0.71946 -0.004,-0.0183 0.10201,-0.14083 0.23657,-0.27234 1.12109,-1.09558 1.8944,-2.53251 2.24676,-4.17486 l 0.11905,-0.50935 c 1.51796,1.26575 3.2155,0.73115 4.59042,0.17038 0.12999,4.93091 5.50312,7.12315 4.85927,11.01218 -0.73738,4.45417 -2.80547,-1.3763 -2.35542,-0.75092 0.27028,0.37557 0.40522,4.73215 -1.70582,2.8835 -3.72137,-3.80275 -3.00082,-4.38007 -6.7233,-7.63913 z"
       style="fill:#ff0000;fill-opacity:0.98557691;stroke:#000000;stroke-width:0.18008912;stroke-miterlimit:4;stroke-opacity:0.9807692;stroke-dasharray:none" />
    <path
       sodipodi:nodetypes="cscc"
       inkscape:connector-curvature="0"
       id="path6891"
       d="m 832.56411,882.05163 c 0.0217,-0.0568 1.83644,0.3165 2.41907,0.17487 0.87269,-0.21214 3.01415,-1.04828 4.64115,-1.91425 -2.6273,6.68645 -8.5967,5.90765 -7.06022,1.73938 z"
       style="fill:#ff7f2a;fill-opacity:0.98557691;stroke:#000000;stroke-width:0.20466998;stroke-miterlimit:4;stroke-opacity:0.9807692;stroke-dasharray:none" />
    <path
       sodipodi:nodetypes="cssscsccsccccc"
       inkscape:connector-curvature="0"
       id="path6893"
       d="m 823.13787,884.06789 c -0.12197,-0.10406 -0.40995,-0.33421 -0.63998,-0.51148 -2.0045,-1.54478 -2.53744,-3.61119 -1.53862,-5.9657 0.23992,-0.56559 0.79861,-1.46288 1.2441,-1.99808 1.34879,-1.62046 3.26905,-2.87815 5.07376,-3.32311 0.80567,-0.1988 1.1844,-0.2199 1.73549,-0.0975 2.09953,0.46657 3.60656,1.41379 4.28667,2.69433 0.15855,0.29855 0.16142,0.31242 0.10041,0.48672 -0.0838,0.23928 -0.0735,0.54195 0.0544,1.6115 0.2959,2.47281 0.38608,4.4536 0.21986,4.8291 -0.24162,1.08367 -0.39326,2.24352 -0.76339,3.17892 -0.44715,1.114 -1.06643,2.04951 -1.93799,2.92755 -0.25988,0.26183 -1.90171,0.9471 -1.40024,0.76679 -1.98376,-1.54056 -4.54609,-3.06331 -6.43454,-4.59909 z"
       style="fill:#d38d5f;fill-opacity:1;stroke:#000000;stroke-width:0.04526534;stroke-miterlimit:4;stroke-opacity:1;stroke-dasharray:none" />
    <path
       transform="matrix(0.1316266,-0.03199609,0.03173857,0.13056719,721.04299,903.38939)"
       d="m 834.38602,11.905062 c 0,18.968323 -12.6633,34.345188 -28.28427,34.345188 -15.62098,0 -28.28428,-15.376865 -28.28428,-34.345188 0,-18.9683239 12.6633,-34.345188 28.28428,-34.345188 15.62097,0 28.28427,15.3768641 28.28427,34.345188 z"
       sodipodi:ry="34.345188"
       sodipodi:rx="28.284271"
       sodipodi:cy="11.905062"
       sodipodi:cx="806.10175"
       id="path6895"
       style="fill:#ffffff;fill-opacity:1;stroke:#000000;stroke-width:2.43448114;stroke-miterlimit:4;stroke-opacity:1;stroke-dasharray:none"
       sodipodi:type="arc" />
    <path
       sodipodi:nodetypes="scccccs"
       inkscape:connector-curvature="0"
       id="path6897"
       d="m 833.85965,876.07146 c -0.11481,-0.005 -0.20275,-0.0653 -0.34134,-0.23258 -2.33748,-6.55085 -13.53733,-4.74158 -17.3153,-2.99228 -17.9518,9.53045 -1.10392,-20.35371 3.00332,-3.62226 -6.82576,-15.95482 14.05259,-15.52094 9.03954,-0.22968 4.56851,-20.71005 23.85107,-0.74907 6.19568,6.66637 -0.20972,0.43723 -0.19687,0.42816 -0.5819,0.41043 z"
       style="fill:#ff0000;fill-opacity:0.98557691;stroke:#000000;stroke-width:0.32335809;stroke-miterlimit:4;stroke-opacity:0.9807692;stroke-dasharray:none" />
    <path
       transform="matrix(0.15236823,-0.03703801,0.03690885,0.15183686,706.16608,906.28417)"
       d="m 816.20323,17.965977 c 0,11.157836 -7.68843,20.20305 -17.17259,20.20305 -9.48416,0 -17.17259,-9.045214 -17.17259,-20.20305 0,-11.157837 7.68843,-20.2030509 17.17259,-20.2030509 9.48416,0 17.17259,9.0452139 17.17259,20.2030509 z"
       sodipodi:ry="20.203051"
       sodipodi:rx="17.172594"
       sodipodi:cy="17.965977"
       sodipodi:cx="799.03064"
       id="path6899"
       style="fill:#000000;fill-opacity:0.98557691;stroke:#000000;stroke-width:1;stroke-miterlimit:4;stroke-opacity:0.9807692;stroke-dasharray:none"
       sodipodi:type="arc" />
    <path
       sodipodi:nodetypes="cccccsssssssssssssssccsssscsccsssssscccccscc"
       inkscape:connector-curvature="0"
       id="path6901"
       d="m 805.60886,986.78183 c -5.4534,1.76737 -11.70289,1.74468 -16.72804,1.03475 -6.95158,-1.33338 -12.36821,-2.09566 -17.71193,-6.70927 -5.51389,-4.49351 -8.01655,-9.69098 -9.72028,-15.05852 1.49074,1.22598 8.87174,0.14342 10.16212,-0.53982 1.14276,-0.63821 3.21927,-1.58118 4.3097,-1.83128 0.98884,-0.22678 4.17123,-0.46515 5.12399,-0.43702 0.77001,0.0227 1.18172,-0.0604 2.56795,0.45636 2.2261,0.82985 2.91557,0.97874 4.585,1.25185 3.29472,0.539 6.99887,0.44273 10.39902,-0.40816 1.62324,-0.4062 4.61256,-1.80047 6.13092,-2.7387 2.27581,-1.40627 3.77469,-3.01057 5.02496,-4.90226 1.62454,-2.45797 10.78881,-19.10656 10.66539,-21.75254 -0.0661,-1.41366 0.0727,-0.56389 -0.78629,-0.87054 -0.50598,-0.18061 -0.85023,-0.39391 -0.91889,-0.54498 -0.0562,-0.12376 -0.17115,-0.24428 -0.26633,-0.23855 -0.26676,0.0161 -0.43344,0.0367 -0.38633,0.14028 0.0233,0.0512 0.21298,-0.1036 0.33553,-0.1593 0.16577,-0.0753 0.19828,0.10825 0.33151,0.27769 0.0985,0.12525 0.49429,0.34935 0.87953,0.49802 l 0.70042,0.27029 c 0.13843,2.82786 -7.69831,17.01584 -8.80881,19.11816 -0.75616,2.65239 -4.06609,6.44259 -6.75965,8.05869 -1.42665,0.85596 -4.07513,2.17585 -5.71158,2.64372 -6.78359,1.93948 -13.96899,0.91014 -20.03134,-2.86956 -3.97505,-2.47834 -7.70211,-6.60362 -10.80417,-11.95854 -0.26933,-0.46493 -0.48491,-0.85195 -0.47905,-0.86005 0.006,-0.008 0.14787,-0.23855 0.31561,-0.51213 0.58063,-0.9471 1.36336,-1.72326 2.44286,-2.42239 0.20639,-0.90471 -2.32483,1.8995 -2.62851,2.36099 -0.31936,0.49129 -0.35415,0.61067 -0.23189,0.79599 0.0792,0.1199 0.43359,0.5419 0.75734,1.04 4.12425,6.34548 7.76912,10.09176 12.40665,12.7916 0.4837,0.28159 0.89375,0.46498 0.87558,0.47323 -0.0182,0.008 -0.41241,0.0146 -0.87609,0.0142 -0.88773,-7.5e-4 -3.76149,0.31302 -4.89973,0.53526 -0.99116,0.19352 -2.88994,1.01973 -4.21274,1.78517 -1.76201,1.1971 -8.18668,1.43711 -9.69651,0.86034 -2.6151,-3.1139 -37.20661,-16.00006 -3.00735,-28.34576 8.2215,-0.3326 6.87151,-1.65047 20.46411,-4.25358 19.46184,-6.93629 55.15263,-63.1164 57.49564,-27.18433 2.56289,12.46119 0.4066,39.60585 -5.61681,53.07936 -7.05296,15.77647 -13.98292,23.00663 -25.69145,27.11126 z"
       style="fill:#a05a2c;fill-opacity:1;stroke:#000000;stroke-width:0.32573229;stroke-miterlimit:4;stroke-opacity:0.9807692;stroke-dasharray:none" />
    <path
       sodipodi:nodetypes="sscs"
       inkscape:connector-curvature="0"
       id="path6903"
       d="m 758.44138,964.32086 c 0.56751,0.67217 2.93188,-2.06762 2.54233,-2.83019 -23.69311,-46.38156 -36.23095,12.58165 -26.12234,55.11413 -0.83281,-49.57735 7.69214,-71.10175 23.58001,-52.28394 z"
       style="fill:#ff0000;fill-opacity:1;stroke:#000000;stroke-width:0.29862547px;stroke-linecap:butt;stroke-linejoin:miter;stroke-opacity:1" />
    <path
       sodipodi:nodetypes="cccccccccsccscccc"
       inkscape:connector-curvature="0"
       id="path6905"
       d="m 828.92046,921.10711 c -2.21335,-1.12803 -3.02552,-8.59119 -4.39098,-10.67952 -1.40891,1.24147 -1.10193,6.00405 -6.25432,10.72385 -0.31251,-5.86235 -2.32989,-8.40405 -2.11184,-11.95435 -0.84309,1.16703 -5.89355,9.95511 -7.38932,10.1805 0.94643,-3.86871 1.28496,-8.18608 0.85482,-10.49828 l -5.42222,9.38063 c -2.21196,-5.26314 4.11614,-13.85972 4.92727,-19.62454 0.64278,-12.39297 -0.70566,-23.7914 10.18702,-26.82475 2.62461,-0.80199 5.78853,-1.16236 7.52737,-0.85735 1.71947,0.30161 3.7383,1.01869 4.63149,2.00363 -4.9295,-3.03578 -14.19223,3.84802 -8.6343,9.57978 0.99442,1.37628 3.52043,3.58217 8.29331,7.24234 6.57463,5.04186 6.32662,8.21115 8.56251,11.83954 1.98248,9.09199 -0.56402,14.5569 -1.86785,18.77454 -2.02649,-4.05196 -0.63168,-5.89722 -3.10695,-8.93243 -1.21735,3.52705 -4.29143,6.9245 -5.80601,9.64641 z"
       style="fill:#aa4400;fill-opacity:1;stroke:#000000;stroke-width:0.32887396;stroke-miterlimit:4;stroke-opacity:0.9807692;stroke-dasharray:none" />
    <path
       sodipodi:nodetypes="sscs"
       inkscape:connector-curvature="0"
       id="path6907"
       d="m 759.66178,958.10178 c 0.69581,0.56981 1.17811,-4.04763 0.87737,-4.78879 -19.46239,-47.96636 -47.94159,16.37544 -38.357,55.96321 3.29504,-47.54156 15.06659,-69.52913 37.47963,-51.17442 z"
       style="fill:#d40000;fill-opacity:1;stroke:#000000;stroke-width:0.33500049px;stroke-linecap:butt;stroke-linejoin:miter;stroke-opacity:1" />
    <path
       sodipodi:nodetypes="sscs"
       inkscape:connector-curvature="0"
       id="path6909"
       d="m 759.45714,965.58321 c 0.52718,0.50078 1.54762,-0.92781 1.25463,-1.56703 -18.96147,-41.36859 -30.31396,10.52062 -18.87443,44.53292 -4.11673,-40.54866 0.63871,-59.09637 17.6198,-42.96589 z"
       style="fill:#aa4400;fill-opacity:1;stroke:#000000;stroke-width:0.24901223px;stroke-linecap:butt;stroke-linejoin:miter;stroke-opacity:1" />
    <path
       sodipodi:nodetypes="sscs"
       inkscape:connector-curvature="0"
       id="path6911"
       d="m 758.53266,959.52177 c 0.56841,0.6489 2.15608,-0.85617 1.91354,-1.63236 -15.6966,-50.23305 -40.67642,7.95829 -33.04713,48.68979 3.00877,-47.25393 12.8245,-67.95869 31.13359,-47.05743 z"
       style="fill:#008000;fill-opacity:1;stroke:#000000;stroke-width:0.30413041px;stroke-linecap:butt;stroke-linejoin:miter;stroke-opacity:1" />
    <path
       sodipodi:nodetypes="sscs"
       inkscape:connector-curvature="0"
       id="path6913"
       d="m 756.96389,952.39751 c 0.6147,0.79051 3.07664,0.18806 2.88967,-0.73586 -10.79053,-53.3185 -51.29018,-2.15418 -48.33512,47.87154 14.31133,-44.23499 29.67666,-67.41425 45.44545,-47.13568 z"
       style="fill:#008000;fill-opacity:1;stroke:#000000;stroke-width:0.35317761px;stroke-linecap:butt;stroke-linejoin:miter;stroke-opacity:1" />
    <path
       sodipodi:nodetypes="sscs"
       inkscape:connector-curvature="0"
       id="path6915"
       d="m 758.97448,949.95504 c 0.51554,0.85845 1.92236,-0.34735 1.80638,-1.28284 -7.50579,-60.54181 -46.42002,1.4831 -46.17068,49.50821 13.28816,-53.23705 27.75746,-75.87726 44.3643,-48.22537 z"
       style="fill:#ff0000;fill-opacity:1;stroke:#000000;stroke-width:0.35317761px;stroke-linecap:butt;stroke-linejoin:miter;stroke-opacity:1" />
    <path
       sodipodi:nodetypes="sscs"
       inkscape:connector-curvature="0"
       id="path6917"
       d="m 759.14663,948.54878 c 0.56787,0.94616 2.73804,0.86621 2.60085,-0.16365 -8.87306,-66.60887 -54.61228,-3.74093 -52.64393,48.85931 14.63638,-58.6766 31.75161,-79.17281 50.04308,-48.69566 z"
       style="fill:#803300;fill-opacity:1;stroke:#000000;stroke-width:0.38913482px;stroke-linecap:butt;stroke-linejoin:miter;stroke-opacity:1" />
  </g>
  <g
     style="display:inline"
     transform="translate(-183.99546,-841.75412)"
     id="g6919"
     inkscape:groupmode="layer"
     inkscape:label="rooster5">
    <path
       sodipodi:nodetypes="ccssccc"
       inkscape:connector-curvature="0"
       id="path6921"
       d="m 930.85953,943.74637 c -1.18728,0.33313 -2.4013,1.02682 -3.67859,2.57233 3.28243,9.60257 7.82629,14.89464 13.57839,18.12563 13.12269,7.37107 29.55171,0.99662 30.39274,-10.89733 0.0624,-0.87606 -1.35953,-0.58627 -1.48381,-1.5519 l -0.25882,-0.10749 -0.3204,0.10468"
       style="fill:none;stroke:#000000;stroke-width:0.07163449px;stroke-linecap:butt;stroke-linejoin:miter;stroke-opacity:1" />
    <path
       inkscape:connector-curvature="0"
       id="path6923"
       d="m 982.16432,1003.0545 c -0.8089,-0.7807 -1.94426,-1.6848 -2.99656,-2.386 -3.98406,-2.65482 -8.77379,-3.48091 -14.03594,-2.42065 -0.65576,0.13208 -1.2097,0.21867 -1.23107,0.1924 -0.0637,-0.0784 1.05669,-0.72129 1.98082,-1.13628 0.79087,-0.35516 2.87239,-0.90934 3.26504,-0.86922 0.2179,0.0226 0.30054,-0.72716 0.17203,-1.56026 -0.0505,-0.33102 -0.084,-0.68746 -0.0734,-0.79206 0.0103,-0.10454 -0.0186,-0.2095 -0.0664,-0.23316 -0.10835,-0.0544 -0.6203,-1.38855 -0.55372,-1.44283 0.0271,-0.0219 0.36033,0.37151 0.74036,0.87474 0.38002,0.50315 0.72526,0.88683 0.76732,0.85258 0.0424,-0.034 -0.0496,-0.2249 -0.20307,-0.42363 -0.15378,-0.19873 -1.63199,-2.0955 -3.28498,-4.21511 -1.65299,-2.11946 -2.98912,-3.86697 -2.96917,-3.88317 0.0195,-0.0163 0.43529,0.0819 0.92293,0.21826 1.75252,0.48985 2.40263,0.61774 3.96308,0.77955 0.87141,0.0904 2.16427,0.15283 2.87293,0.13887 0.70858,-0.0142 1.39532,-0.0122 1.52596,-0.003 l 0.23757,0.0217 -0.25596,0.333 c -0.37142,0.48311 -1.03627,1.57836 -1.23536,2.03491 -0.0945,0.21664 -0.20844,0.43646 -0.25328,0.48845 -0.045,0.0522 -0.10875,0.2769 -0.14187,0.49986 -0.0331,0.2229 -0.0967,0.52146 -0.14136,0.66353 -0.0443,0.14207 -0.0629,0.57548 -0.0413,0.96311 0.0979,1.72933 1.2028,3.16972 3.40942,4.44496 1.28121,0.7405 1.53309,0.79774 4.71922,1.07297 5.69551,0.49205 7.07187,0.65659 7.77441,0.92956 1.05151,0.40853 2.84259,1.50695 2.67716,1.6418 -0.0236,0.0192 -0.74014,-0.11325 -1.59212,-0.29462 -2.64738,-0.56359 -7.23155,-0.96208 -8.4825,-0.73738 -0.14265,0.0258 0.0498,0.25221 0.78049,0.918 0.53354,0.48612 1.18314,1.14972 1.44373,1.47442 0.49986,0.6232 1.01172,1.8424 0.92027,2.1925 -0.0474,0.183 -0.11155,0.1479 -0.61512,-0.3382 l 0,0 z"
       style="fill:#ff7f2a;fill-opacity:0.98557691;stroke:#000000;stroke-width:0.32443261;stroke-miterlimit:4;stroke-opacity:0.9807692;stroke-dasharray:none" />
    <path
       inkscape:connector-curvature="0"
       id="path6925"
       d="m 971.73323,993.36573 c -0.4164,-0.80539 -0.55491,-1.94929 -0.33835,-2.79506 l 0.11339,-0.44305 0.45608,0.28289 c 0.67787,0.42047 1.44761,0.58792 4.80164,1.04418 5.063,0.68889 6.56089,1.03815 7.76874,1.81101 0.53712,0.34386 1.1472,1.03429 1.12295,1.27125 -0.007,0.0738 -0.21894,0.0684 -0.64124,-0.0168 -4.37788,-0.88121 -9.53197,-1.29026 -12.50791,-0.99268 -0.62892,0.0629 -0.66272,0.0562 -0.7753,-0.1618 z"
       style="fill:#ff7f2a;fill-opacity:0.98557691;stroke:#000000;stroke-width:0.32443261;stroke-miterlimit:4;stroke-opacity:0.9807692;stroke-dasharray:none" />
    <path
       inkscape:connector-curvature="0"
       id="path6927"
       d="m 974.99347,991.06422 c -0.7024,-0.11183 -1.58203,-0.29372 -1.95457,-0.40422 -0.6318,-0.18734 -0.66005,-0.20775 -0.41992,-0.30211 0.62508,-0.24556 3.20827,-0.78809 4.29987,-0.90304 1.23407,-0.12984 1.82767,-0.10855 2.74854,0.0986 l 0.53475,0.12043 -0.73541,0.3334 c -0.40441,0.18337 -1.19367,0.51549 -1.75398,0.73816 -0.56018,0.22259 -1.06641,0.44304 -1.12501,0.49003 -0.0584,0.0474 -0.15379,0.0734 -0.21174,0.0585 -0.0582,-0.0142 -0.67999,-0.11818 -1.38253,-0.23 l 0,0 z"
       style="fill:#ff7f2a;fill-opacity:0.98557691;stroke:#000000;stroke-width:0.32443261;stroke-miterlimit:4;stroke-opacity:0.9807692;stroke-dasharray:none" />
    <path
       inkscape:connector-curvature="0"
       id="path6929"
       d="m 959.22058,995.5449 c 0.0103,-0.10173 0.81876,-0.72901 1.39655,-1.08372 0.24148,-0.14827 1.23583,-0.59285 2.20976,-0.98812 1.98671,-0.80627 2.24476,-0.93256 2.85129,-1.3949 0.54644,-0.41653 0.77515,-0.76084 0.98813,-1.48715 l 0.17124,-0.58378 0.75163,1.01233 c 0.41347,0.55683 0.72438,1.00963 0.69103,1.00628 -0.0336,-2.7e-4 0.10351,0.42513 0.30421,0.95246 l 0.36475,0.95858 -0.33514,0.0197 c -3.78895,0.22641 -6.27297,0.62988 -8.43401,1.36984 -0.98095,0.33596 -0.97124,0.33371 -0.95944,0.21817 z"
       style="fill:#ff7f2a;fill-opacity:0.98557691;stroke:#000000;stroke-width:0.32443261;stroke-miterlimit:4;stroke-opacity:0.9807692;stroke-dasharray:none" />
    <path
       sodipodi:nodetypes="csssccscc"
       inkscape:connector-curvature="0"
       id="path6931"
       d="m 1009.3956,881.85312 c 0.064,-0.4583 -0.1021,-2.64596 -0.325,-4.28187 -0.15,-1.09999 -0.1207,-1.38938 0.1464,-1.4483 0.8744,-0.19286 3.3725,-0.0965 4.6691,0.18017 1.3773,0.29386 4.5893,1.05307 4.6607,1.36135 0.018,0.08 -1.7836,0.51144 -2.6105,0.83432 -0.8272,0.32288 -2.6126,1.27543 -3.968,2.11677 -1.3553,0.84132 -2.499,1.53772 -2.5413,1.54755 -0.043,0.0104 -0.056,-0.12962 -0.032,-0.30999 z"
       style="fill:#ff7f2a;fill-opacity:0.98557691;stroke:#000000;stroke-width:0.20465975;stroke-miterlimit:4;stroke-opacity:0.9807692;stroke-dasharray:none" />
    <path
       sodipodi:nodetypes="csssccsscc"
       inkscape:connector-curvature="0"
       id="path6933"
       d="m 1007.748,889.45763 c -0.6886,-0.38501 -1.2553,-0.71501 -1.2597,-0.73333 -0.01,-0.0185 0.1036,-0.13971 0.2397,-0.26973 1.133,-1.08322 1.922,-2.51157 2.2925,-4.14995 l 0.1245,-0.50801 c 1.504,1.28232 3.2073,0.76641 4.5883,0.22075 0.076,4.93204 5.4246,7.18314 4.7381,11.06487 -0.7863,4.4458 -2.7902,-1.40701 -2.347,-0.77674 0.2661,0.37852 0.3532,4.73632 -1.7374,2.86461 -3.6793,-3.84337 -2.9526,-4.41275 -6.639,-7.71247 z"
       style="fill:#ff0000;fill-opacity:0.98557691;stroke:#000000;stroke-width:0.18008912;stroke-miterlimit:4;stroke-opacity:0.9807692;stroke-dasharray:none" />
    <path
       sodipodi:nodetypes="cscc"
       inkscape:connector-curvature="0"
       id="path6935"
       d="m 1009.4139,882.1835 c 0.021,-0.0566 1.8328,0.33663 2.4169,0.20141 0.875,-0.20255 3.0256,-1.01513 4.6619,-1.86319 -2.7006,6.65721 -8.661,5.81294 -7.0788,1.66178 z"
       style="fill:#ff7f2a;fill-opacity:0.98557691;stroke:#000000;stroke-width:0.20466998;stroke-miterlimit:4;stroke-opacity:0.9807692;stroke-dasharray:none" />
    <path
       sodipodi:nodetypes="cssscsccsccccc"
       inkscape:connector-curvature="0"
       id="path6937"
       d="m 999.96599,884.09615 c -0.12072,-0.10538 -0.40627,-0.33869 -0.63425,-0.51845 -1.98747,-1.5667 -2.49774,-3.63884 -1.47312,-5.98225 0.24611,-0.56292 0.81467,-1.45401 1.26597,-1.98429 1.36651,-1.60557 3.30041,-2.8421 5.11001,-3.26723 0.8078,-0.18994 1.1867,-0.20689 1.7365,-0.0784 2.0941,0.48959 3.5907,1.4533 4.2568,2.74122 0.1552,0.30027 0.1579,0.31418 0.095,0.48778 -0.087,0.23837 -0.079,0.54111 0.036,1.61202 0.2687,2.4759 0.3371,4.45757 0.1669,4.83122 -0.2536,1.08095 -0.4179,2.23908 -0.7983,3.17033 -0.4593,1.10904 -1.0889,2.03769 -1.97,2.90613 -0.2628,0.25895 -1.912,0.92616 -1.4086,0.75137 -1.9667,-1.56224 -4.5122,-3.11304 -6.38371,-4.66945 z"
       style="fill:#d38d5f;fill-opacity:1;stroke:#000000;stroke-width:0.04526534;stroke-miterlimit:4;stroke-opacity:1;stroke-dasharray:none" />
    <path
       transform="matrix(0.1319699,-0.03054927,0.03030339,0.13090772,897.66515,902.29579)"
       d="m 834.38602,11.905062 c 0,18.968323 -12.6633,34.345188 -28.28427,34.345188 -15.62098,0 -28.28428,-15.376865 -28.28428,-34.345188 0,-18.9683239 12.6633,-34.345188 28.28428,-34.345188 15.62097,0 28.28427,15.3768641 28.28427,34.345188 z"
       sodipodi:ry="34.345188"
       sodipodi:rx="28.284271"
       sodipodi:cy="11.905062"
       sodipodi:cx="806.10175"
       id="path6939"
       style="fill:#ffffff;fill-opacity:1;stroke:#000000;stroke-width:2.43448114;stroke-miterlimit:4;stroke-opacity:1;stroke-dasharray:none"
       sodipodi:type="arc" />
    <path
       sodipodi:nodetypes="scccccs"
       inkscape:connector-curvature="0"
       id="path6941"
       d="m 1010.775,876.21791 c -0.1148,-0.006 -0.202,-0.0674 -0.3388,-0.23632 -2.2654,-6.57612 -13.48452,-4.8899 -17.28141,-3.18217 -18.05533,9.33283 -0.88047,-20.36461 3.04285,-3.58907 -6.6502,-16.02879 14.22216,-15.36575 9.04156,-0.13041 4.7956,-20.65864 23.8578,-0.4872 6.1221,6.73399 -0.2146,0.4349 -0.2015,0.42597 -0.5863,0.40402 z"
       style="fill:#ff0000;fill-opacity:0.98557691;stroke:#000000;stroke-width:0.32335809;stroke-miterlimit:4;stroke-opacity:0.9807692;stroke-dasharray:none" />
    <path
       transform="matrix(0.15276562,-0.0353632,0.03523988,0.15223286,882.75742,905.02707)"
       d="m 816.20323,17.965977 c 0,11.157836 -7.68843,20.20305 -17.17259,20.20305 -9.48416,0 -17.17259,-9.045214 -17.17259,-20.20305 0,-11.157837 7.68843,-20.2030509 17.17259,-20.2030509 9.48416,0 17.17259,9.0452139 17.17259,20.2030509 z"
       sodipodi:ry="20.203051"
       sodipodi:rx="17.172594"
       sodipodi:cy="17.965977"
       sodipodi:cx="799.03064"
       id="path6943"
       style="fill:#000000;fill-opacity:0.98557691;stroke:#000000;stroke-width:1;stroke-miterlimit:4;stroke-opacity:0.9807692;stroke-dasharray:none"
       sodipodi:type="arc" />
    <path
       sodipodi:nodetypes="cccccsssssssssssssssccsssscsccsssssscccccscc"
       inkscape:connector-curvature="0"
       id="path6945"
       d="m 981.31058,986.61145 c -5.47247,1.70738 -11.72136,1.6161 -16.7384,0.85114 -6.93655,-1.40966 -12.34449,-2.23134 -17.63722,-6.90333 -5.46424,-4.55378 -7.90974,-9.7784 -9.55441,-15.16432 1.47719,1.24228 8.86969,0.24081 10.16744,-0.42823 1.14972,-0.62563 3.23638,-1.54575 4.32957,-1.78386 0.99124,-0.21591 4.17606,-0.41934 5.12843,-0.38075 0.76974,0.0312 1.18235,-0.0474 2.56282,0.48452 2.21688,0.85423 2.90463,1.01069 4.57099,1.3021 3.28857,0.57514 6.9936,0.51954 10.40284,-0.29398 1.62768,-0.38835 4.63207,-1.74973 6.16059,-2.67124 2.29117,-1.3812 3.80757,-2.96894 5.07853,-4.84679 1.65142,-2.44 10.99784,-18.98698 10.90348,-21.63417 -0.0508,-1.4143 0.079,-0.56305 -0.77665,-0.8791 -0.50397,-0.18617 -0.84586,-0.40324 -0.91285,-0.55504 -0.055,-0.12438 -0.16848,-0.24616 -0.26371,-0.24146 -0.26687,0.0131 -0.43388,0.0319 -0.38782,0.13603 0.0229,0.0515 0.2141,-0.10127 0.33725,-0.1556 0.16659,-0.0735 0.19704,0.11041 0.32839,0.2813 0.0972,0.12633 0.49045,0.35476 0.87407,0.50765 l 0.69741,0.27797 c 0.10739,2.8292 -7.88464,16.9303 -9.01815,19.0203 -0.78525,2.64394 -4.13663,6.39758 -6.84771,7.984 -1.43598,0.84025 -4.09875,2.13099 -5.74024,2.58087 -6.8045,1.86489 -13.97817,0.75674 -19.99865,-3.08928 -3.94761,-2.52182 -7.62915,-6.68777 -10.67229,-12.07642 -0.26414,-0.46785 -0.47545,-0.85722 -0.4695,-0.86525 0.007,-0.008 0.1504,-0.23692 0.32115,-0.50864 0.59101,-0.94067 1.3822,-1.70819 2.46937,-2.39541 0.2162,-0.90241 -2.34561,1.87386 -2.65431,2.33199 -0.32476,0.48774 -0.36082,0.60673 -0.24061,0.79339 0.0778,0.12076 0.42766,0.54662 0.74586,1.04824 4.05432,6.39038 7.65791,10.17645 12.26548,12.92703 0.48055,0.28688 0.88856,0.47476 0.87036,0.48282 -0.0181,0.008 -0.41258,0.01 -0.87618,0.005 -0.88773,-0.0106 -3.76469,0.2717 -4.90537,0.48144 -0.99321,0.18262 -2.9009,0.98795 -4.23203,1.73882 -1.77507,1.17767 -8.202,1.34716 -9.70538,0.75385 -2.58077,-3.14242 -37.02871,-16.40752 -2.69598,-28.37707 8.22459,-0.24233 6.88922,-1.57494 20.50957,-4.02868 19.53676,-6.72225 55.84208,-62.50719 57.79058,-26.55156 2.4259,12.48858 -0.028,39.60793 -6.1991,53.01451 -7.2258,15.6981 -14.23464,22.85169 -25.98755,26.82757 z"
       style="fill:#a05a2c;fill-opacity:1;stroke:#000000;stroke-width:0.32573229;stroke-miterlimit:4;stroke-opacity:0.9807692;stroke-dasharray:none" />
    <path
       sodipodi:nodetypes="sscs"
       inkscape:connector-curvature="0"
       id="path6947"
       d="m 934.39252,963.63411 c 0.56006,0.67836 2.95434,-2.03531 2.5732,-2.80212 -23.18251,-46.63885 -36.36681,12.18319 -26.72571,54.82411 -0.28857,-49.58354 8.47215,-71.01308 24.15251,-52.02199 z"
       style="fill:#ff0000;fill-opacity:1;stroke:#000000;stroke-width:0.29862547px;stroke-linecap:butt;stroke-linejoin:miter;stroke-opacity:1" />
    <path
       sodipodi:nodetypes="cccccccccsccscccc"
       inkscape:connector-curvature="0"
       id="path6949"
       d="m 1005.3417,921.19662 c -2.2008,-1.15226 -2.931,-8.62388 -4.2735,-10.72708 -1.42241,1.22594 -1.16777,5.99161 -6.37171,10.65456 -0.2481,-5.86544 -2.23748,-8.42912 -1.98045,-11.97682 -0.85583,1.15771 -6.00246,9.88983 -7.50065,10.09877 0.98886,-3.85808 1.3748,-8.17149 0.96999,-10.48826 l -5.52482,9.32054 c -2.15406,-5.28709 4.26798,-13.8137 5.14235,-19.56928 0.77885,-12.38514 -0.44436,-23.79769 10.48087,-26.71128 2.63327,-0.77315 5.80102,-1.09876 7.53642,-0.77469 1.716,0.32048 3.7268,1.05967 4.6092,2.05436 -4.8959,-3.08972 -14.23367,3.69199 -8.73891,9.48442 0.97911,1.38712 3.48081,3.6206 8.21321,7.33293 6.519,5.11374 6.2361,8.28011 8.4321,11.93283 1.8826,9.1132 -0.7238,14.54984 -2.0739,18.75291 -1.9819,-4.07396 -0.5669,-5.90381 -3.0086,-8.966 -1.2561,3.51348 -4.3673,6.87698 -5.9116,9.58209 z"
       style="fill:#aa4400;fill-opacity:1;stroke:#000000;stroke-width:0.32887396;stroke-miterlimit:4;stroke-opacity:0.9807692;stroke-dasharray:none" />
    <path
       sodipodi:nodetypes="sscs"
       inkscape:connector-curvature="0"
       id="path6951"
       d="m 935.68109,957.4288 c 0.68952,0.57741 1.22246,-4.03445 0.92986,-4.77888 -18.93467,-48.17711 -48.11845,15.8482 -38.96903,55.53878 3.81676,-47.50252 15.82895,-69.35954 38.03917,-50.7599 z"
       style="fill:#d40000;fill-opacity:1;stroke:#000000;stroke-width:0.33500049px;stroke-linecap:butt;stroke-linejoin:miter;stroke-opacity:1" />
    <path
       sodipodi:nodetypes="sscs"
       inkscape:connector-curvature="0"
       id="path6953"
       d="m 935.39431,964.90754 c 0.52167,0.50652 1.55773,-0.91077 1.27176,-1.55317 -18.50624,-41.57424 -30.42764,10.18723 -19.36214,44.32313 -3.67131,-40.5915 1.28743,-59.08588 18.09038,-42.76996 z"
       style="fill:#aa4400;fill-opacity:1;stroke:#000000;stroke-width:0.24901223px;stroke-linecap:butt;stroke-linejoin:miter;stroke-opacity:1" />
    <path
       sodipodi:nodetypes="sscs"
       inkscape:connector-curvature="0"
       id="path6955"
       d="m 934.53644,958.83632 c 0.56125,0.65508 2.16533,-0.83246 1.93138,-1.61128 -15.14427,-50.40232 -40.76134,7.51131 -33.57963,48.32416 3.52727,-47.2181 13.56974,-67.81387 31.64825,-46.71288 z"
       style="fill:#008000;fill-opacity:1;stroke:#000000;stroke-width:0.30413041px;stroke-linecap:butt;stroke-linejoin:miter;stroke-opacity:1" />
    <path
       sodipodi:nodetypes="sscs"
       inkscape:connector-curvature="0"
       id="path6957"
       d="m 933.04592,951.69526 c 0.60597,0.7972 3.07443,0.22181 2.89757,-0.7041 -10.20452,-53.43374 -51.26342,-2.71707 -48.85763,47.33807 14.79606,-44.07522 30.41482,-67.08442 45.96006,-46.63397 z"
       style="fill:#008000;fill-opacity:1;stroke:#000000;stroke-width:0.35317761px;stroke-linecap:butt;stroke-linejoin:miter;stroke-opacity:1" />
    <path
       sodipodi:nodetypes="sscs"
       inkscape:connector-curvature="0"
       id="path6959"
       d="m 935.08323,949.275 c 0.5061,0.86407 1.92608,-0.32623 1.82039,-1.26293 -6.84082,-60.62055 -46.43359,0.97345 -46.71142,48.99844 13.87178,-53.08802 28.58876,-75.56802 44.89103,-47.73551 z"
       style="fill:#ff0000;fill-opacity:1;stroke:#000000;stroke-width:0.35317761px;stroke-linecap:butt;stroke-linejoin:miter;stroke-opacity:1" />
    <path
       sodipodi:nodetypes="sscs"
       inkscape:connector-curvature="0"
       id="path6961"
       d="m 935.27083,947.87072 c 0.55741,0.95234 2.72834,0.89621 2.60243,-0.13509 -8.14134,-66.70226 -54.56792,-4.34019 -53.17706,48.27847 15.27966,-58.51238 32.61879,-78.81949 50.57463,-48.14338 z"
       style="fill:#803300;fill-opacity:1;stroke:#000000;stroke-width:0.38913482px;stroke-linecap:butt;stroke-linejoin:miter;stroke-opacity:1" />
  </g>
</svg>
