<?xml version="1.0" encoding="UTF-8" standalone="no"?>
<!-- Created with Inkscape (http://www.inkscape.org/) -->

<svg
   xmlns:dc="http://purl.org/dc/elements/1.1/"
   xmlns:cc="http://creativecommons.org/ns#"
   xmlns:rdf="http://www.w3.org/1999/02/22-rdf-syntax-ns#"
   xmlns:svg="http://www.w3.org/2000/svg"
   xmlns="http://www.w3.org/2000/svg"
   xmlns:sodipodi="http://sodipodi.sourceforge.net/DTD/sodipodi-0.dtd"
   xmlns:inkscape="http://www.inkscape.org/namespaces/inkscape"
   width="347.9747"
   height="251.42226"
   id="svg2"
   version="1.1"
   inkscape:version="0.48.2 r9819"
   sodipodi:docname="ku2.svg">
  <defs
     id="defs4" />
  <sodipodi:namedview
     id="base"
     pagecolor="#ffffff"
     bordercolor="#666666"
     borderopacity="1.0"
     inkscape:pageopacity="0.0"
     inkscape:pageshadow="2"
     inkscape:zoom="2"
     inkscape:cx="160.2771"
     inkscape:cy="127.79463"
     inkscape:document-units="px"
     inkscape:current-layer="layer1"
     showgrid="false"
     inkscape:window-width="1280"
     inkscape:window-height="752"
     inkscape:window-x="0"
     inkscape:window-y="0"
     inkscape:window-maximized="1"
     fit-margin-top="0"
     fit-margin-left="0"
     fit-margin-right="0"
     fit-margin-bottom="0" />
  <metadata
     id="metadata7">
    <rdf:RDF>
      <cc:Work
         rdf:about="">
        <dc:format>image/svg+xml</dc:format>
        <dc:type
           rdf:resource="http://purl.org/dc/dcmitype/StillImage" />
        <dc:title></dc:title>
      </cc:Work>
    </rdf:RDF>
  </metadata>
  <g
     inkscape:label="Layer 1"
     inkscape:groupmode="layer"
     id="layer1"
     transform="translate(-230.23586,-218.22838)">
    <g
       id="g3142">
      <path
         sodipodi:nodetypes="cssssc"
         inkscape:connector-curvature="0"
         id="path3930"
         d="m 424.52503,349.40311 c -2.26998,5.58101 17.23378,6.53279 24.44789,22.63294 7.21412,16.10016 2.13859,47.34868 2.13859,55.66588 0,34.35756 -6.21773,29.17426 4.7767,29.17426 14.66704,0 14.79211,5.49374 14.79211,-28.86384 0,-16.63441 35.99273,-92.51673 37.51369,-103.98556"
         style="fill:#ffffff;fill-opacity:1;stroke:#000000;stroke-width:0.60605448;stroke-miterlimit:4;stroke-opacity:1;stroke-dasharray:none" />
      <path
         sodipodi:nodetypes="ccccc"
         inkscape:connector-curvature="0"
         id="path3939"
         d="m 449.55407,456.29414 18.38124,-0.10869 1.96299,12.70933 -23.09908,-0.009 z"
         style="fill:#782121;fill-opacity:1;stroke:#000000;stroke-width:1;stroke-miterlimit:4;stroke-opacity:1;stroke-dasharray:none" />
      <path
         style="fill:#000000;fill-opacity:1;stroke:#000000;stroke-width:0.33563456;stroke-miterlimit:4;stroke-opacity:1"
         d="m 455.94133,430.75347 c -2.43286,4.48847 11.23278,7.55619 3.86888,10.79384 -5.51735,2.42579 -3.53555,9.66581 -0.61201,5.36526 6.54341,-9.62541 9.16126,3.29883 9.16126,-4.16884 0,-3.70819 -4.72132,-7.90247 -3.63947,-11.73477 3.13223,-11.09555 -3.61736,-8.19962 -7.12071,-8.00649"
         id="path3959"
         inkscape:connector-curvature="0"
         sodipodi:nodetypes="cssssc" />
    </g>
    <path
       style="fill:#ffd2b4;fill-opacity:1;stroke:#000000;stroke-width:1;stroke-miterlimit:4;stroke-opacity:1"
       d="m 467.33725,405.52503 c 0,6.01596 -1.2134,38.52823 -9.75144,32.19054 -2.59602,-1.92699 -5.67254,-14.62568 -7.88418,-14.12549 -8.19944,1.85444 1.50767,16.62183 -6.616,16.65149 -5.84326,0.0213 -5.06887,-13.47336 -7.68698,-13.37344 -7.60391,0.29021 -5.07384,13.25196 -7.61497,13.56761 -13.35817,1.65931 -0.99426,-11.88293 -11.55195,-12.33703 -4.41367,-0.18983 -1.0832,14.21585 -8.17755,12.08333 -7.70216,-2.31522 -1.50934,-11.82242 -4.53692,-16.75218 -1.80384,-2.93718 -5.65536,-4.31844 -7.67947,-6.92485 -2.02411,-2.6064 -2.07197,-3.68629 -2.07197,-6.69427 0,-12.03192 11.48004,-26.07143 33.57143,-26.07143 21.9397,0 39.78485,9.62521 39.99811,21.57395"
       id="path3795"
       inkscape:connector-curvature="0"
       sodipodi:nodetypes="csssssssasssc" />
    <g
       id="g3131"
       transform="matrix(1.2311585,0,0,1,-80.042515,0)">
      <path
         style="fill:#ffffff;fill-opacity:1;stroke:#000000;stroke-width:0.58926654;stroke-miterlimit:4;stroke-opacity:1;stroke-dasharray:none"
         d="m 308.52503,353.80457 c -4.53996,10.55218 9.44362,58.29547 9.44362,74.02108 0,32.48049 -1.21773,28.12733 9.7767,28.12733 14.66704,0 9.07783,4.09967 9.07783,-28.38083 0,-15.7256 13.98358,-68.28533 9.44362,-78.83751"
         id="path3793"
         inkscape:connector-curvature="0"
         sodipodi:nodetypes="csssc" />
      <path
         sodipodi:nodetypes="ccccc"
         inkscape:connector-curvature="0"
         id="path3937"
         d="m 319.16344,456.48945 18.38124,-0.10869 1.96299,12.70933 -23.09908,-0.009 z"
         style="fill:#782121;fill-opacity:1;stroke:#000000;stroke-width:1;stroke-miterlimit:4;stroke-opacity:1;stroke-dasharray:none" />
      <path
         style="fill:#000000;fill-opacity:1;stroke:#000000;stroke-width:0.85871136px;stroke-linecap:butt;stroke-linejoin:miter;stroke-opacity:1"
         d="m 330.59622,408.45972 c -3.3374,-20.32941 -11.69795,4.55136 -11.69795,4.55136 0,0 1.87118,33.22493 12.25417,25.33591 10.31165,-7.83481 -5.16624,-7.36404 0.0253,-14.4945 1.20031,-1.64864 -0.58149,-15.39277 -0.58149,-15.39277 z"
         id="path3955"
         inkscape:connector-curvature="0"
         sodipodi:nodetypes="ccssc" />
    </g>
    <path
       style="fill:#ffffff;fill-opacity:1;stroke:#000000;stroke-width:0.99355537;stroke-miterlimit:4;stroke-opacity:1"
       d="m 533.42025,325.53371 c 0,50.40622 -53.56292,91.08746 -128.43844,91.08746 -37.43776,0 -75.85505,-17.77854 -96.71894,-39.08549 -22.71086,-23.19314 -25.06229,-26.68705 -39.56229,-52.89016 -24.40572,-44.10385 57.84145,-63.7346 132.71697,-63.7346 37.18069,0 84.46334,-15.73738 108.96974,0.60074 24.50641,16.33813 22.66514,39.21622 23.02656,64.24509"
       id="path2985"
       inkscape:connector-curvature="0"
       sodipodi:nodetypes="csssssc" />
    <path
       style="fill:#000000;fill-opacity:1;stroke:#000000;stroke-width:1;stroke-miterlimit:4;stroke-opacity:1"
       d="m 515.7143,312.93362 c 0,15.77957 -16.3376,4.7407 -26.42857,25.71429 -7.56057,15.71428 -69.83232,-8.81614 -56.42857,-17.14286 30,-18.63671 4.58228,-48.85713 27.85714,-48.85713 11.55752,0 23.24568,14.17312 35.19002,11.09184 34.58204,-8.9211 17.55278,16.0809 16.95085,26.05899"
       id="path3811"
       inkscape:connector-curvature="0"
       sodipodi:nodetypes="cssssc" />
    <path
       sodipodi:nodetypes="cssssc"
       inkscape:connector-curvature="0"
       id="path3814"
       d="m 434.46805,349.1415 c 0,-12.03357 -26.50778,18.17341 -33.869,2.17887 -5.51534,-11.98378 -36.352,-15.06547 -26.57415,-8.71548 21.88459,14.21243 3.34271,37.25865 20.32141,37.25865 8.43105,0 19.04165,-16.25565 27.75488,-13.90586 25.22713,6.80327 10.72027,-6.81618 10.28117,-14.42552"
       style="fill:#000000;fill-opacity:1;stroke:#000000;stroke-width:0.74586141;stroke-miterlimit:4;stroke-opacity:1" />
    <path
       style="fill:#000000;fill-opacity:1;stroke:#000000;stroke-width:0.74586141;stroke-miterlimit:4;stroke-opacity:1"
       d="m 335.37931,310.35299 c 3.63664,-1.8037 18.00954,1.74766 10.64831,-14.24691 -2.75767,-5.99189 -11.13138,-0.1154 -21.16488,2.33853 -10.03349,2.45393 -21.72676,1.48528 -16.83784,4.66028 21.88459,14.21242 3.34271,37.25865 20.32141,37.25865 8.43105,0 -7.02978,-13.75565 1.68345,-11.40586 25.22713,6.80327 -1.19904,-6.77155 2.23145,-11.82788 0.9702,-1.43001 -1.48339,-3.70885 -0.65066,-4.90758 0.80003,-1.15167 3.76876,-1.86923 3.76876,-1.86923 z"
       id="path3816"
       inkscape:connector-curvature="0"
       sodipodi:nodetypes="sssssssss" />
    <path
       style="fill:#000000;fill-opacity:1;stroke:#000000;stroke-width:1.78692007;stroke-miterlimit:4;stroke-opacity:1"
       d="m 386.49833,312.92193 c 0,7.2622 -6.04594,8.91168 -10.71592,8.91168 -4.66998,0 -7.46037,-0.2105 -7.46037,-7.4727 0,-7.26221 3.13533,-6.88777 7.80531,-6.88777 4.63791,0 10.3289,-1.69677 10.37397,5.5152"
       id="path3818"
       inkscape:connector-curvature="0"
       sodipodi:nodetypes="csssc" />
    <path
       style="fill:#000000;fill-opacity:1;stroke:#000000;stroke-width:1px;stroke-linecap:butt;stroke-linejoin:miter;stroke-opacity:1"
       d="m 376.28182,262.92797 c 24.74874,27.52665 42.93149,21.46574 51.01271,10.85914 8.08122,-10.6066 -11.11168,-12.12183 -11.11168,-12.12183"
       id="path3823"
       inkscape:connector-curvature="0" />
    <g
       id="g3152">
      <path
         sodipodi:nodetypes="czzssszzsc"
         inkscape:connector-curvature="0"
         id="path3825"
         d="m 514.45793,265.71028 c 1.99532,-7.17081 23.28689,-2.28802 24.34395,24.40915 1.05705,26.69717 1.06023,38.61093 0.57921,46.61409 -0.48099,8.00316 -2.14101,20.81125 2.35028,31.56069 4.49131,10.74943 15.13393,19.4402 14.38357,19.20873 -10.58253,-3.26462 -16.12179,-10.13404 -19.13209,-18.3262 -3.0103,-8.19215 -3.49165,-17.70704 -3.95839,-26.26256 -0.46675,-8.55553 1.23067,-32.31583 1.18261,-40.51826 -0.0481,-8.20244 -1.78386,-24.45275 -5.55714,-28.10203 -8.68898,-8.40342 -8.7515,-4.85584 -9.6141,-5.19457"
         style="fill:#ffffff;fill-opacity:1;stroke:#000000;stroke-width:0.64088422px;stroke-linecap:butt;stroke-linejoin:miter;stroke-opacity:1" />
      <path
         sodipodi:nodetypes="cssssscc"
         inkscape:connector-curvature="0"
         id="path3961"
         d="m 549.6549,382.45508 c -0.24976,3.57366 -4.13175,6.66827 0.47006,8.58222 4.60181,1.91396 9.12201,2.85281 12.54621,2.36309 3.42422,-0.48972 14.9731,2.89261 15.17568,1.01505 0.20255,-1.87757 -7.76687,-3.54105 -12.00052,-6.66439 -8.67378,-6.3991 -4.41828,-9.20789 -6.7434,-10.71865 -2.3251,-1.51076 -8.19877,3.79355 -8.19877,3.79355 z"
         style="fill:#550000;fill-opacity:1;stroke:#000000;stroke-width:0.7198447px;stroke-linecap:butt;stroke-linejoin:miter;stroke-opacity:1" />
    </g>
    <path
       style="fill:#aa0000;fill-opacity:1;stroke:#000000;stroke-width:0;stroke-linecap:butt;stroke-linejoin:miter;stroke-miterlimit:4;stroke-opacity:1;stroke-dasharray:none"
       d="m 241.64628,332.15372 c -2.0515,34.73045 9.08518,47.39243 18.28876,21.11698 8.45959,-24.15145 4.29197,-20.62507 4.29197,-20.62507"
       id="path4268"
       inkscape:connector-curvature="0"
       sodipodi:nodetypes="csc" />
    <g
       id="g4234"
       transform="translate(-8,-2)">
      <path
         sodipodi:nodetypes="cc"
         inkscape:connector-curvature="0"
         id="path4232"
         d="M 283.98865,263.35254 C 201.60154,171.4109 271.95218,251.57778 251.77141,274.49432"
         style="fill:#4d4d4d;fill-opacity:1;stroke:#000000;stroke-width:0;stroke-linecap:butt;stroke-linejoin:miter;stroke-miterlimit:4;stroke-opacity:1;stroke-dasharray:none" />
      <path
         style="fill:#4d4d4d;fill-opacity:1;stroke:#000000;stroke-width:0;stroke-linecap:butt;stroke-linejoin:miter;stroke-miterlimit:4;stroke-opacity:1;stroke-dasharray:none"
         d="m 285.32082,264.11057 c 113.17522,-49.31803 15.84471,-5.69795 24.65861,23.5381"
         id="path3787"
         inkscape:connector-curvature="0"
         sodipodi:nodetypes="cc" />
      <path
         style="fill:#ffffff;fill-opacity:1;stroke:#000000;stroke-width:0.7024647px;stroke-linecap:butt;stroke-linejoin:miter;stroke-opacity:1"
         d="m 300.29645,290.03192 c 6.64391,0.68707 12.843,-2.97183 17.4284,-4.11936 4.58543,-1.14742 7.55713,0.2163 8.66718,-1.86085 1.11006,-2.07714 -3.30695,-2.26692 -7.08913,-4.36862 -3.78217,-2.10171 -6.92953,-6.11526 -17.02077,-7.33651"
         id="path3808"
         inkscape:connector-curvature="0"
         sodipodi:nodetypes="csssc" />
      <path
         sodipodi:nodetypes="csssc"
         inkscape:connector-curvature="0"
         id="path3798"
         d="m 250.78956,273.03479 c -4.64739,-3.85047 -5.72481,-9.94739 -7.87046,-13.73459 -2.14564,-3.7872 -4.91611,-4.77349 -4.25741,-6.94377 0.65872,-2.17027 3.57359,0.57561 7.33921,1.57596 3.76564,1.00033 8.38201,0.25521 15.55712,5.97983"
         style="fill:#ffffff;fill-opacity:1;stroke:#000000;stroke-width:0.65398991px;stroke-linecap:butt;stroke-linejoin:miter;stroke-opacity:1" />
      <path
         sodipodi:nodetypes="sssssssss"
         id="rect3783"
         d="m 270.33846,259.4796 25.18471,7.45167 c 7.51278,2.22289 13.41826,13.44435 7.97222,22.90096 l -27.22079,47.26666 c -5.44604,9.4566 -8.62661,17.94529 -15.83517,14.8761 l -9.71675,-4.13711 c -7.20855,-3.06919 -4.93462,-2.62858 -4.10523,-13.50971 l 4.57128,-59.97247 c 0.82939,-10.88113 11.63694,-17.09899 19.14973,-14.8761 z"
         style="fill:#ffffff;fill-opacity:1;stroke:#000000;stroke-width:1;stroke-miterlimit:4;stroke-opacity:1"
         inkscape:connector-curvature="0" />
      <path
         id="rect3949"
         d="m 255.85401,322.69098 16.07661,6.64125 c 3.81178,1.57467 5.12821,7.32411 2.95165,12.89115 l -2.03709,5.2103 c -2.17658,5.56703 -6.99752,8.78113 -10.8093,7.20648 l -16.0766,-6.64126 c -3.81179,-1.57467 -5.12822,-7.32411 -2.95166,-12.89115 l 2.03708,-5.21029 c 2.17658,-5.56704 6.99751,-8.78112 10.80931,-7.20648 z"
         style="fill:#ffd5d5;fill-opacity:1;stroke:#000000;stroke-width:0.53692025;stroke-miterlimit:4;stroke-opacity:1"
         inkscape:connector-curvature="0" />
      <path
         sodipodi:nodetypes="csssc"
         inkscape:connector-curvature="0"
         id="path3918"
         d="m 253.74708,340.11988 c 3.637,0.56961 3.34085,-5.03519 1.77877,-6.26696 -1.36631,-1.07741 -1.48263,-1.43065 -4.96301,-2.23214 -2.04516,-0.47098 -5.32468,1.77923 -5.09853,3.74146 0.25438,2.20708 1.90703,2.64125 1.90703,2.64125"
         style="fill:none;stroke:#000000;stroke-width:1px;stroke-linecap:butt;stroke-linejoin:miter;stroke-opacity:1" />
      <path
         style="fill:none;stroke:#000000;stroke-width:1px;stroke-linecap:butt;stroke-linejoin:miter;stroke-opacity:1"
         d="m 267.21406,346.5105 c 3.54475,0.9935 3.90999,-4.60722 2.50366,-6.01419 -1.23008,-1.23066 -1.30404,-1.59514 -4.66597,-2.80048 -1.97555,-0.70829 -5.497,1.1405 -5.50325,3.1157 -0.007,2.22168 1.58306,2.84725 1.58306,2.84725"
         id="path3920"
         inkscape:connector-curvature="0"
         sodipodi:nodetypes="csssc" />
      <path
         transform="translate(78,10)"
         d="m 217.94041,278.96414 c 0,3.13814 -2.99622,5.68211 -6.69226,5.68211 -3.69603,0 -6.69226,-2.54397 -6.69226,-5.68211 0,-3.13814 2.99623,-5.68211 6.69226,-5.68211 3.69604,0 6.69226,2.54397 6.69226,5.68211 z"
         sodipodi:ry="5.6821079"
         sodipodi:rx="6.6922607"
         sodipodi:cy="278.96414"
         sodipodi:cx="211.24815"
         id="path3922"
         style="fill:#ffffff;fill-opacity:1;stroke:#000000;stroke-width:0.40000001;stroke-miterlimit:4;stroke-opacity:1;stroke-dasharray:none"
         sodipodi:type="arc" />
      <path
         transform="translate(76,10)"
         d="m 214.90995,280.22684 c 0,1.32499 -1.13065,2.39911 -2.52538,2.39911 -1.39473,0 -2.52538,-1.07412 -2.52538,-2.39911 0,-1.325 1.13065,-2.39912 2.52538,-2.39912 1.39473,0 2.52538,1.07412 2.52538,2.39912 z"
         sodipodi:ry="2.3991122"
         sodipodi:rx="2.5253813"
         sodipodi:cy="280.22684"
         sodipodi:cx="212.38457"
         id="path3924"
         style="fill:#000000;fill-opacity:1;stroke:#000000;stroke-width:0.40000001;stroke-miterlimit:4;stroke-opacity:1;stroke-dasharray:none"
         sodipodi:type="arc" />
      <path
         sodipodi:type="arc"
         style="fill:#ffffff;fill-opacity:1;stroke:#000000;stroke-width:0.40000001;stroke-miterlimit:4;stroke-opacity:1;stroke-dasharray:none"
         id="path3926"
         sodipodi:cx="211.24815"
         sodipodi:cy="278.96414"
         sodipodi:rx="6.6922607"
         sodipodi:ry="5.6821079"
         d="m 217.94041,278.96414 c 0,3.13814 -2.99622,5.68211 -6.69226,5.68211 -3.69603,0 -6.69226,-2.54397 -6.69226,-5.68211 0,-3.13814 2.99623,-5.68211 6.69226,-5.68211 3.69604,0 6.69226,2.54397 6.69226,5.68211 z"
         transform="translate(54,4)" />
      <path
         sodipodi:type="arc"
         style="fill:#000000;fill-opacity:1;stroke:#000000;stroke-width:0.40000001;stroke-miterlimit:4;stroke-opacity:1;stroke-dasharray:none"
         id="path3928"
         sodipodi:cx="212.38457"
         sodipodi:cy="280.22684"
         sodipodi:rx="2.5253813"
         sodipodi:ry="2.3991122"
         d="m 214.90995,280.22684 c 0,1.32499 -1.13065,2.39911 -2.52538,2.39911 -1.39473,0 -2.52538,-1.07412 -2.52538,-2.39911 0,-1.325 1.13065,-2.39912 2.52538,-2.39912 1.39473,0 2.52538,1.07412 2.52538,2.39912 z"
         transform="translate(52,4)" />
      <path
         style="fill:#ffaaaa;fill-opacity:1;stroke:#000000;stroke-width:0.45905983px;stroke-linecap:butt;stroke-linejoin:miter;stroke-opacity:1"
         d="m 250.30034,268.41384 c -3.43268,-2.64171 -4.84559,-6.96007 -6.39678,-9.49432 -1.55119,-2.53424 -3.38469,-3.55393 -2.85271,-4.95633 0.53198,-1.4024 2.4447,0.77223 5.26153,1.5261 2.81683,0.75387 4.48386,1.2922 9.78723,5.22675 0,0 -3.03909,1.54757 -4.0399,2.85909 -1.04112,1.36435 -1.75937,4.83871 -1.75937,4.83871 z"
         id="path3945"
         inkscape:connector-curvature="0"
         sodipodi:nodetypes="cssscac" />
      <path
         sodipodi:nodetypes="cssscac"
         inkscape:connector-curvature="0"
         id="path3947"
         d="m 306.88856,286.97538 c 4.13035,0.68479 8.0747,-1.65982 10.83991,-2.3824 2.76522,-0.72258 4.709,-0.0555 5.28367,-1.55654 0.57466,-1.50102 -2.66867,-0.74726 -5.11002,-2.39774 -2.44137,-1.6505 -4.46401,-4.4993 -10.74684,-5.67031 0,0 1.06396,4.12601 1.00441,6.22877 -0.0558,1.97225 -1.27113,5.77822 -1.27113,5.77822 z"
         style="fill:#ffaaaa;fill-opacity:1;stroke:#000000;stroke-width:0.47265849px;stroke-linecap:butt;stroke-linejoin:miter;stroke-opacity:1" />
    </g>
    <g
       id="g4258">
      <g
         transform="matrix(1.2568327,0,0,1,-93.158157,0)"
         id="g3127">
        <path
           style="fill:#ffffff;fill-opacity:1;stroke:#000000;stroke-width:0.59037727;stroke-miterlimit:4;stroke-opacity:1;stroke-dasharray:none"
           d="m 332.52503,353.8237 c -4.53996,10.592 9.44362,58.51543 9.44362,74.30039 0,32.60305 -1.21773,28.23346 9.7767,28.23346 14.66704,0 9.07783,4.11514 9.07783,-28.48792 0,-15.78494 13.98358,-68.543 9.44362,-79.13499"
           id="path3757"
           inkscape:connector-curvature="0"
           sodipodi:nodetypes="csssc" />
        <path
           sodipodi:nodetypes="ccccc"
           inkscape:connector-curvature="0"
           id="path3935"
           d="m 343.16344,456.48945 18.38124,-0.10869 1.96299,12.70933 -23.09908,-0.009 z"
           style="fill:#782121;fill-opacity:1;stroke:#000000;stroke-width:1;stroke-miterlimit:4;stroke-opacity:1;stroke-dasharray:none" />
      </g>
      <path
         sodipodi:nodetypes="ccssc"
         inkscape:connector-curvature="0"
         id="path3953"
         d="m 340.59641,398.65124 c 4.41856,26.17188 19.88349,-5.85937 19.88349,-5.85937 0,0 -6.87331,-42.77344 -20.61992,-32.61719 -13.65213,10.08645 17.18327,14.25781 10.30995,23.4375 -1.58916,2.12244 -9.57352,15.03906 -9.57352,15.03906 z"
         style="fill:#000000;fill-opacity:1;stroke:#000000;stroke-width:1.12108552px;stroke-linecap:butt;stroke-linejoin:miter;stroke-opacity:1" />
    </g>
    <g
       id="g3147"
       transform="matrix(1.135686,0,0,1,-72.211288,0)">
      <path
         style="fill:#ffffff;fill-opacity:1;stroke:#000000;stroke-width:0.60283816;stroke-miterlimit:4;stroke-opacity:1;stroke-dasharray:none"
         d="m 450.16119,351.21445 c 6.66583,6.26859 10.39943,15.34852 14.00648,23.31338 7.21411,15.92972 10.94384,43.84744 10.94384,52.07661 0,33.99386 -4.01642,28.86541 6.97801,28.86541 14.66704,0 9.67849,3.77431 12.5908,-30.05828 0.88053,-10.22916 9.43845,-25.49478 18.62675,-47.74025"
         id="path3762"
         inkscape:connector-curvature="0"
         sodipodi:nodetypes="cssssc" />
      <path
         style="fill:#782121;fill-opacity:1;stroke:#000000;stroke-width:1;stroke-miterlimit:4;stroke-opacity:1;stroke-dasharray:none"
         d="m 473.55407,456.29414 18.38124,-0.10869 1.96299,12.70933 -23.09908,-0.009 z"
         id="path3941"
         inkscape:connector-curvature="0"
         sodipodi:nodetypes="ccccc" />
      <path
         sodipodi:nodetypes="cssssc"
         inkscape:connector-curvature="0"
         id="path3957"
         d="m 498.30784,402.88916 c 7.58155,0 -11.44985,-6.81603 -1.37276,-11.85467 7.55018,-3.77516 -1.44576,-17.4605 -5.44646,-10.76771 -8.9543,14.97966 -12.53668,-5.13385 -12.53668,6.48781 0,5.77092 10.2416,13.03371 8.76115,18.99778 -4.28628,17.26758 1.16942,12.02536 5.96356,11.7248"
         style="fill:#000000;fill-opacity:1;stroke:#000000;stroke-width:0.48980317;stroke-miterlimit:4;stroke-opacity:1" />
    </g>
  </g>
</svg>
