<?xml version="1.0" encoding="UTF-8" standalone="no"?>
<!-- Created with Inkscape (http://www.inkscape.org/) -->

<svg
   xmlns:dc="http://purl.org/dc/elements/1.1/"
   xmlns:cc="http://creativecommons.org/ns#"
   xmlns:rdf="http://www.w3.org/1999/02/22-rdf-syntax-ns#"
   xmlns:svg="http://www.w3.org/2000/svg"
   xmlns="http://www.w3.org/2000/svg"
   xmlns:sodipodi="http://sodipodi.sourceforge.net/DTD/sodipodi-0.dtd"
   xmlns:inkscape="http://www.inkscape.org/namespaces/inkscape"
   width="744.09448819"
   height="1052.3622047"
   id="svg16481"
   version="1.1"
   inkscape:version="0.48.4 r9939"
   sodipodi:docname="mushroom.svg">
  <defs
     id="defs16483">
    <inkscape:path-effect
       effect="spiro"
       id="path-effect16497"
       is_visible="true" />
    <inkscape:path-effect
       effect="spiro"
       id="path-effect16493"
       is_visible="true" />
  </defs>
  <sodipodi:namedview
     id="base"
     pagecolor="#ffffff"
     bordercolor="#666666"
     borderopacity="1.0"
     inkscape:pageopacity="0.0"
     inkscape:pageshadow="2"
     inkscape:zoom="2.8"
     inkscape:cx="-40.378494"
     inkscape:cy="940.79008"
     inkscape:document-units="px"
     inkscape:current-layer="layer1"
     showgrid="false"
     inkscape:window-width="1918"
     inkscape:window-height="1030"
     inkscape:window-x="0"
     inkscape:window-y="0"
     inkscape:window-maximized="1" />
  <metadata
     id="metadata16486">
    <rdf:RDF>
      <cc:Work
         rdf:about="">
        <dc:format>image/svg+xml</dc:format>
        <dc:type
           rdf:resource="http://purl.org/dc/dcmitype/StillImage" />
        <dc:title></dc:title>
      </cc:Work>
    </rdf:RDF>
  </metadata>
  <g
     inkscape:label="Layer 1"
     inkscape:groupmode="layer"
     id="layer1">
    <g
       id="g17150">
      <path
         sodipodi:nodetypes="czzc"
         inkscape:connector-curvature="0"
         id="path16503"
         d="m 49.497475,69.673159 c 0,0 -9.276287,48.982111 -3.788072,58.083771 5.488215,9.10166 31.207538,9.33311 37.123106,1.26269 5.915568,-8.07042 -8.407726,-58.127099 -8.407726,-58.127099"
         style="fill:#ffffff;fill-opacity:1;stroke:#000000;stroke-width:1px;stroke-linecap:butt;stroke-linejoin:miter;stroke-opacity:1" />
      <path
         sodipodi:nodetypes="zzzzzzzz"
         inkscape:connector-curvature="0"
         id="path16489"
         d="M 17.763991,59.138724 C 15.949252,55.535371 21.397432,42.533703 29.598407,35.124666 37.799382,27.71563 51.488655,22.914083 65.524315,22.891089 c 14.035659,-0.02299 34.782965,7.968508 43.111095,17.217628 8.3281,9.249117 9.63448,21.059006 8.03049,24.014058 -1.60398,2.955053 -27.324856,6.143118 -38.884511,6.796432 C 66.221734,71.572522 57.901233,70.82726 47.77269,69.106824 37.644148,67.38639 19.578729,62.742077 17.763991,59.138724 z"
         style="fill:#ff0000;fill-opacity:1;stroke:#000000;stroke-width:1.22531378px;stroke-linecap:butt;stroke-linejoin:miter;stroke-opacity:1" />
      <path
         transform="matrix(0.79375098,0,0,0.99772858,-0.68754387,0.73683812)"
         d="m 48.214285,49.237179 a 3.9285715,2.9464285 0 1 1 -7.857143,0 3.9285715,2.9464285 0 1 1 7.857143,0 z"
         sodipodi:ry="2.9464285"
         sodipodi:rx="3.9285715"
         sodipodi:cy="49.237179"
         sodipodi:cx="44.285713"
         id="path17031"
         style="fill:#ff0000;fill-opacity:1;stroke:#ffffff;stroke-width:7.98899984;stroke-miterlimit:4;stroke-opacity:1;stroke-dasharray:none"
         sodipodi:type="arc" />
      <path
         d="m 48.214285,49.237179 a 3.9285715,2.9464285 0 1 1 -7.857143,0 3.9285715,2.9464285 0 1 1 7.857143,0 z"
         sodipodi:ry="2.9464285"
         sodipodi:rx="3.9285715"
         sodipodi:cy="49.237179"
         sodipodi:cx="44.285713"
         id="path17031-0"
         style="fill:#ff0000;fill-opacity:1;stroke:#ffffff;stroke-width:7.98899984;stroke-miterlimit:4;stroke-opacity:1;stroke-dasharray:none"
         sodipodi:type="arc"
         transform="translate(35.000001,-14.017855)" />
      <path
         transform="matrix(0.95732855,0,0,1.152852,29.013207,-4.4384839)"
         d="m 77.857143,52.987179 a 4.7321429,2.7678571 0 1 1 -9.464286,0 4.7321429,2.7678571 0 1 1 9.464286,0 z"
         sodipodi:ry="2.7678571"
         sodipodi:rx="4.7321429"
         sodipodi:cy="52.987179"
         sodipodi:cx="73.125"
         id="path17051"
         style="fill:#ff0000;fill-opacity:1;stroke:#ffffff;stroke-width:7.98899984;stroke-miterlimit:4;stroke-opacity:1;stroke-dasharray:none"
         sodipodi:type="arc" />
      <path
         d="m 48.214285,49.237179 a 3.9285715,2.9464285 0 1 1 -7.857143,0 3.9285715,2.9464285 0 1 1 7.857143,0 z"
         sodipodi:ry="2.9464285"
         sodipodi:rx="3.9285715"
         sodipodi:cy="49.237179"
         sodipodi:cx="44.285713"
         id="path17031-8"
         style="fill:#ff0000;fill-opacity:1;stroke:#ffffff;stroke-width:7.98899984;stroke-miterlimit:4;stroke-opacity:1;stroke-dasharray:none"
         sodipodi:type="arc"
         transform="matrix(1.2050493,0,0,1.152187,12.615674,0.00674357)" />
      <path
         d="m 48.214285,49.237179 a 3.9285715,2.9464285 0 1 1 -7.857143,0 3.9285715,2.9464285 0 1 1 7.857143,0 z"
         sodipodi:ry="2.9464285"
         sodipodi:rx="3.9285715"
         sodipodi:cy="49.237179"
         sodipodi:cx="44.285713"
         id="path17031-0-2"
         style="fill:#ff0000;fill-opacity:1;stroke:#ffffff;stroke-width:7.98899984;stroke-miterlimit:4;stroke-opacity:1;stroke-dasharray:none"
         sodipodi:type="arc"
         transform="matrix(0.62534994,0,0,0.68228476,25.163075,0.73268984)" />
    </g>
  </g>
</svg>
